<?xml version="1.0" encoding="UTF-8"?>
<svg id="Layer_1" data-name="Layer 1" xmlns="http://www.w3.org/2000/svg" xmlns:xlink="http://www.w3.org/1999/xlink" viewBox="0 0 1125 1125">
  <defs>
    <style>
      .cls-1 {
        fill: url(#linear-gradient-2);
      }

      .cls-2 {
        fill: #5b93bc;
      }

      .cls-3 {
        fill: #6da6c9;
      }

      .cls-4 {
        fill: #f4f4f4;
      }

      .cls-5 {
        fill: #fff;
      }

      .cls-6 {
        fill: #ff8f15;
      }

      .cls-7 {
        fill: url(#linear-gradient-17);
      }

      .cls-8 {
        fill: #ffb434;
      }

      .cls-9 {
        fill: #e5410e;
      }

      .cls-10 {
        fill: url(#linear-gradient-15);
      }

      .cls-11 {
        fill: url(#linear-gradient-18);
      }

      .cls-12 {
        fill: url(#linear-gradient-40);
      }

      .cls-13 {
        fill: url(#linear-gradient-28);
      }

      .cls-14 {
        fill: url(#linear-gradient-14);
      }

      .cls-15 {
        fill: url(#linear-gradient-36);
      }

      .cls-16 {
        fill: url(#linear-gradient-20);
      }

      .cls-17 {
        fill: #184c42;
      }

      .cls-18 {
        fill: url(#linear-gradient-6);
      }

      .cls-19 {
        fill: #82b1db;
      }

      .cls-20, .cls-21 {
        stroke: #000;
      }

      .cls-20, .cls-21, .cls-22 {
        fill: none;
        stroke-linecap: round;
        stroke-linejoin: round;
      }

      .cls-20, .cls-22 {
        stroke-width: .8px;
      }

      .cls-23 {
        fill: url(#linear-gradient-35);
      }

      .cls-24 {
        fill: url(#linear-gradient-32);
      }

      .cls-25 {
        fill: url(#linear-gradient-11);
      }

      .cls-26 {
        fill: url(#linear-gradient-39);
      }

      .cls-27 {
        fill: #2c665b;
      }

      .cls-28 {
        fill: url(#linear-gradient-10);
      }

      .cls-29 {
        fill: url(#linear-gradient-37);
      }

      .cls-30 {
        fill: url(#linear-gradient-16);
      }

      .cls-31 {
        fill: url(#linear-gradient-31);
      }

      .cls-32 {
        fill: url(#linear-gradient-21);
      }

      .cls-33 {
        fill: url(#linear-gradient-25);
      }

      .cls-34 {
        fill: url(#linear-gradient-5);
      }

      .cls-35 {
        fill: url(#linear-gradient-34);
      }

      .cls-36 {
        fill: #aa1b04;
      }

      .cls-37 {
        fill: url(#linear-gradient-7);
      }

      .cls-22 {
        stroke: #f4f4f4;
      }

      .cls-38 {
        fill: url(#linear-gradient-24);
      }

      .cls-39 {
        fill: url(#linear-gradient-9);
      }

      .cls-40 {
        fill: url(#linear-gradient-22);
      }

      .cls-41 {
        fill: url(#linear-gradient-3);
      }

      .cls-42 {
        fill: #ff7f0b;
      }

      .cls-43 {
        fill: url(#linear-gradient);
      }

      .cls-44 {
        fill: url(#linear-gradient-27);
      }

      .cls-45 {
        fill: url(#linear-gradient-33);
      }

      .cls-46 {
        fill: url(#linear-gradient-38);
      }

      .cls-47 {
        fill: url(#linear-gradient-29);
      }

      .cls-48 {
        fill: url(#linear-gradient-30);
      }

      .cls-49 {
        fill: url(#linear-gradient-23);
      }

      .cls-50 {
        fill: url(#linear-gradient-19);
      }

      .cls-51 {
        fill: url(#linear-gradient-4);
      }

      .cls-52 {
        fill: url(#linear-gradient-8);
      }

      .cls-53 {
        fill: url(#linear-gradient-12);
      }

      .cls-54 {
        fill: url(#linear-gradient-13);
      }

      .cls-55 {
        fill: url(#linear-gradient-26);
      }
    </style>
    <linearGradient id="linear-gradient" x1="252.56" y1="774.26" x2="971.56" y2="774.26" gradientUnits="userSpaceOnUse">
      <stop offset="0" stop-color="#ffab97"/>
      <stop offset="1" stop-color="#ff5e69"/>
    </linearGradient>
    <linearGradient id="linear-gradient-2" x1="833.65" y1="244.9" x2="931.94" y2="377.83" xlink:href="#linear-gradient"/>
    <linearGradient id="linear-gradient-3" x1="580.26" y1="555.36" x2="657.6" y2="679.4" xlink:href="#linear-gradient"/>
    <linearGradient id="linear-gradient-4" x1="683.68" y1="780.99" x2="1001.2" y2="780.99" xlink:href="#linear-gradient"/>
    <linearGradient id="linear-gradient-5" x1="653.33" y1="308.51" x2="587.56" y2="168.48" gradientTransform="translate(782.83 -402.81) rotate(76.15)" xlink:href="#linear-gradient"/>
    <linearGradient id="linear-gradient-6" x1="980.69" y1="437.43" x2="947.2" y2="624.14" gradientTransform="translate(-447.61 -106.99) rotate(10.47)" xlink:href="#linear-gradient"/>
    <linearGradient id="linear-gradient-7" x1="221.37" y1="186.17" x2="200.19" y2="111.56" gradientTransform="translate(614.88) rotate(-180) scale(1 -1)" xlink:href="#linear-gradient"/>
    <linearGradient id="linear-gradient-8" x1="308.88" y1="161.62" x2="287.7" y2="87.01" gradientTransform="translate(614.88) rotate(-180) scale(1 -1)" xlink:href="#linear-gradient"/>
    <linearGradient id="linear-gradient-9" x1="694.24" y1="423.77" x2="659.65" y2="616.59" gradientTransform="translate(-567.04)" xlink:href="#linear-gradient"/>
    <linearGradient id="linear-gradient-10" x1="346.15" y1="1014.96" x2="421.71" y2="808.44" gradientTransform="translate(614.88) rotate(-180) scale(1 -1)" xlink:href="#linear-gradient"/>
    <linearGradient id="linear-gradient-11" x1="234.23" y1="1031.49" x2="232.79" y2="857.36" gradientTransform="translate(614.88) rotate(-180) scale(1 -1)" xlink:href="#linear-gradient"/>
    <linearGradient id="linear-gradient-12" x1="276.58" y1="204.74" x2="265.53" y2="165.67" gradientTransform="translate(614.88) rotate(-180) scale(1 -1)" xlink:href="#linear-gradient"/>
    <linearGradient id="linear-gradient-13" x1="256.67" y1="166.5" x2="244.63" y2="42.1" gradientTransform="translate(631.83 43.16) rotate(-170.55) scale(1 -1)" xlink:href="#linear-gradient"/>
    <linearGradient id="linear-gradient-14" x1="356.03" y1="768.1" x2="375.46" y2="813.44" xlink:href="#linear-gradient"/>
    <linearGradient id="linear-gradient-15" x1="470.65" y1="851.95" x2="470.65" y2="928.48" xlink:href="#linear-gradient"/>
    <linearGradient id="linear-gradient-16" x1="907.1" y1="375.74" x2="955.48" y2="446.63" xlink:href="#linear-gradient"/>
    <linearGradient id="linear-gradient-17" x1="1028.53" y1="545.15" x2="955.66" y2="765.56" xlink:href="#linear-gradient"/>
    <linearGradient id="linear-gradient-18" x1="498.21" y1="844.77" x2="421.32" y2="830.65" xlink:href="#linear-gradient"/>
    <linearGradient id="linear-gradient-19" x1="473.57" y1="771.28" x2="547.34" y2="733.94" xlink:href="#linear-gradient"/>
    <linearGradient id="linear-gradient-20" x1="448.13" y1="829.9" x2="375.58" y2="785.3" xlink:href="#linear-gradient"/>
    <linearGradient id="linear-gradient-21" x1="246.83" y1="780.99" y2="780.99" xlink:href="#linear-gradient"/>
    <linearGradient id="linear-gradient-22" x1="833.65" y1="244.9" x2="931.94" y2="377.83" xlink:href="#linear-gradient"/>
    <linearGradient id="linear-gradient-23" x1="580.26" y1="555.36" x2="657.6" y2="679.4" xlink:href="#linear-gradient"/>
    <linearGradient id="linear-gradient-24" x1="683.68" y1="780.99" x2="1001.2" y2="780.99" xlink:href="#linear-gradient"/>
    <linearGradient id="linear-gradient-25" x1="653.33" y1="308.51" x2="587.56" y2="168.48" gradientTransform="translate(782.83 -402.81) rotate(76.15)" xlink:href="#linear-gradient"/>
    <linearGradient id="linear-gradient-26" x1="980.69" y1="437.43" x2="947.2" y2="624.14" gradientTransform="translate(-447.61 -106.99) rotate(10.47)" xlink:href="#linear-gradient"/>
    <linearGradient id="linear-gradient-27" x1="221.37" y1="186.17" x2="200.19" y2="111.56" gradientTransform="translate(614.88) rotate(-180) scale(1 -1)" xlink:href="#linear-gradient"/>
    <linearGradient id="linear-gradient-28" x1="308.88" y1="161.62" x2="287.7" y2="87.01" gradientTransform="translate(614.88) rotate(-180) scale(1 -1)" xlink:href="#linear-gradient"/>
    <linearGradient id="linear-gradient-29" x1="694.24" y1="423.77" x2="659.65" y2="616.59" gradientTransform="translate(-567.04)" xlink:href="#linear-gradient"/>
    <linearGradient id="linear-gradient-30" x1="346.15" y1="1014.96" x2="421.71" y2="808.44" gradientTransform="translate(614.88) rotate(-180) scale(1 -1)" xlink:href="#linear-gradient"/>
    <linearGradient id="linear-gradient-31" x1="234.23" y1="1031.49" x2="232.79" y2="857.36" gradientTransform="translate(614.88) rotate(-180) scale(1 -1)" xlink:href="#linear-gradient"/>
    <linearGradient id="linear-gradient-32" x1="276.58" y1="204.74" x2="265.53" y2="165.67" gradientTransform="translate(614.88) rotate(-180) scale(1 -1)" xlink:href="#linear-gradient"/>
    <linearGradient id="linear-gradient-33" x1="256.67" y1="166.5" x2="244.63" y2="42.1" gradientTransform="translate(631.83 43.16) rotate(-170.55) scale(1 -1)" xlink:href="#linear-gradient"/>
    <linearGradient id="linear-gradient-34" x1="356.03" y1="768.1" x2="375.46" y2="813.44" xlink:href="#linear-gradient"/>
    <linearGradient id="linear-gradient-35" x1="470.65" y1="851.95" x2="470.65" y2="928.48" xlink:href="#linear-gradient"/>
    <linearGradient id="linear-gradient-36" x1="907.1" y1="375.74" x2="955.48" y2="446.63" xlink:href="#linear-gradient"/>
    <linearGradient id="linear-gradient-37" x1="1028.53" y1="545.15" x2="955.66" y2="765.56" xlink:href="#linear-gradient"/>
    <linearGradient id="linear-gradient-38" x1="498.21" y1="844.77" x2="421.32" y2="830.65" xlink:href="#linear-gradient"/>
    <linearGradient id="linear-gradient-39" x1="473.57" y1="771.28" x2="547.34" y2="733.94" xlink:href="#linear-gradient"/>
    <linearGradient id="linear-gradient-40" x1="448.13" y1="829.9" x2="375.58" y2="785.3" xlink:href="#linear-gradient"/>
  </defs>
  <polyline class="cls-5" points="1.96 1128.08 1.96 -3.62 1122.96 -3.62 1122.96 1128.08"/>
  <g>
    <g>
      <path class="cls-27" d="m534,357.33c-.07-19.5.62-38.8,1.79-57.23l64,20.1-63.39-29.09c.27-3.75.56-7.44.87-11.1l56.43,8.34-54.73-26.9c1.03-10.22,2.15-19.92,3.29-28.95l47.39,7.72-45.38-22.82c4.4-31.41,8.54-51.57,8.54-51.57,0,0,90.89,67.09,79.83,153.03-11.06,85.95-83.08,164.76-83.08,164.76-8.51-28.35-12.9-60.54-14.65-93.29l45.1-6.9-46.01-26.11Z"/>
      <g>
        <path class="cls-17" d="m585.79,315.81l-49.99-15.71c-1.17,18.44-1.86,37.74-1.8,57.23l46.01,26.12-45.09,6.89c1.74,32.76,6.15,64.95,14.65,93.29,0,0,24.73-27.06,47.42-66.77,2.01-28.67.18-63.59-11.2-101.06Z"/>
        <path class="cls-17" d="m574.61,285.55l-37.34-5.53c-.31,3.65-.59,7.35-.87,11.09l48.67,22.34c-2.88-9.17-6.34-18.5-10.46-27.9Z"/>
        <path class="cls-17" d="m542.27,232.5c-1.14,9.05-2.27,18.73-3.3,28.97l31.77,15.61c-6.97-14.62-15.59-29.43-26.16-44.21l-2.31-.37Z"/>
      </g>
      <path d="m569.19,385.11l-34.27,5.23c1.74,32.76,6.14,64.94,14.65,93.27.56-1.01,25.97-47.25,19.62-98.51Z"/>
      <path d="m534.95,315.3c-.65,13.74-1.01,27.83-.96,42.03l33.85,19.21c-4.06-20.84-13.78-42.13-32.89-61.23Z"/>
      <path class="cls-27" d="m503.37,426.92c-2.82-4.02-5.53-8.08-8.08-12.11l38.44-30.24-44.91,19.32c-4.92-8.97-8.54-17.46-9.89-24.69l50.37-31.08-53.56,17.72c-.99-2.81-2.18-5.75-3.55-8.77l25.18-18.32-28.11,12.21c-5.35-10.59-12.39-21.96-19.74-32.78l25.97-16.71-31.8,8.3c-.72-1.02-1.44-2.03-2.15-3.02l40.09-20.31-47.63,10.02c-12.62-16.85-22.97-29.01-22.97-29.01,20.84-11.92,96.95-4.39,124.73,67,27.78,71.39,13.79,149.2,13.79,149.2,0,0-18.49-19.73-36.63-43.62l23.56-16.17-33.13,3.07Z"/>
      <g>
        <path class="cls-17" d="m488.82,403.89l44.91-19.32-38.43,30.24c2.54,4.04,5.25,8.09,8.07,12.11l33.13-3.06-23.56,16.17c18.14,23.88,36.63,43.62,36.63,43.62,0,0,8.19-45.57-.42-98.97-8.26-10.6-17.87-21.71-28.21-31.39l-41.99,25.93c1.35,7.22,4.96,15.72,9.88,24.68Z"/>
        <path class="cls-17" d="m469.27,350.95l28.11-12.2-25.18,18.31c1.37,3.03,2.56,5.97,3.54,8.78l43.28-14.32c-20.06-18.29-42.73-30.97-63.72-24.59,5.21,8.08,10.05,16.26,13.97,24.03Z"/>
      </g>
    </g>
    <line class="cls-20" x1="434.01" y1="296.45" x2="481.64" y2="286.43"/>
    <path class="cls-20" d="m560.32,470.83c20.51-25.72,63.94-86.78,72.33-151.94,11.06-85.95-79.83-153.03-79.83-153.03l-8.54,51.57,45.38,22.82"/>
    <polyline class="cls-20" points="472.2 357.06 475.75 365.83 529.31 348.12"/>
    <polyline class="cls-20" points="488.82 403.89 533.73 384.57 512.04 401.63"/>
    <polyline class="cls-20" points="540.54 246.91 538.97 261.47 593.7 288.36"/>
    <path class="cls-20" d="m411.05,267.44s66.63-23.74,117.53,51.69"/>
  </g>
  <polyline class="cls-9" points="658.33 1056.92 606.16 503.75 624.6 503.75 676.78 1056.92"/>
  <line class="cls-20" x1="629.49" y1="555.54" x2="676.78" y2="1056.92"/>
  <polyline class="cls-9" points="401.06 1056.92 453.24 503.75 434.79 503.75 382.62 1056.92"/>
  <rect class="cls-42" x="399.04" y="679.99" width="265" height="34.21"/>
  <polygon class="cls-4" points="612.48 679.99 446.91 679.99 417.93 459.86 641.47 459.86 612.48 679.99"/>
  <polyline class="cls-8" points="540.76 1056.92 540.76 503.75 522.31 503.75 522.31 1056.92"/>
  <polygon points="515.01 679.99 508 714.2 522.31 714.2 522.31 679.99 515.01 679.99"/>
  <polygon points="414.94 714.2 433.37 714.2 429.03 760.34 410.36 762.84 414.94 714.2"/>
  <polygon points="644.45 714.2 646.02 730.96 627.82 733.42 626.02 714.2 644.45 714.2"/>
  <polygon class="cls-3" points="522.31 542.28 502.1 679.99 522.31 679.99 522.31 542.28"/>
  <polyline class="cls-20" points="612.48 679.99 641.47 459.86 417.93 459.86"/>
  <line class="cls-20" x1="540.76" y1="503.75" x2="540.76" y2="1056.92"/>
  <polyline class="cls-20" points="664.04 679.99 664.04 714.2 542.07 714.2"/>
  <line class="cls-20" x1="453.24" y1="713.26" x2="522.31" y2="714.2"/>
  <line class="cls-20" x1="433.37" y1="714.2" x2="414.21" y2="917.56"/>
  <line class="cls-20" x1="424.56" y1="510.21" x2="443.35" y2="652.92"/>
  <polyline class="cls-20" points="482.35 679.99 399.04 679.99 399.04 714.2"/>
  <line class="cls-20" x1="392.18" y1="955.51" x2="382.62" y2="1056.92"/>
  <path class="cls-36" d="m690.18,313.02h12.84c-5.43-13.55-21.86-14.83-21.86-14.83l-29.65,17.83h0l-36.25,10.98,15.55,29.12s9.91,10.14,24.76,10.6l-2.61-7.69s4.27,4.43,10.14,4.4l-.34-10.21,23.09,1.64,1.03-18.31,16.16-2.12c-4.4-21.45-12.84-21.41-12.84-21.41Z"/>
  <path class="cls-36" d="m835.3,1001.49s4.99,17.17,21.78,23.88l24.94-31.66s-29.17-8.67-46.72,7.78Z"/>
  <path class="cls-36" d="m832.37,1047.19l16.43-29.92s-25.12-.12-33.13,14.67c0,0-1.77,9.25,16.7,15.25"/>
  <path class="cls-36" d="m519.69,684.11s-14.41-105.45,138.51-133.43l44.82,58.77-116.3,92.72-67.04-18.06Z"/>
  <path class="cls-36" d="m980.97,352.83s132.39-56.18-24.42-255.96l-89.13,83.56,113.55,172.4Z"/>
  <path class="cls-9" d="m1014.84,821.07l-60.83-57.36,9.71,79.98c-106.37,32.03-234.56-9.48-250.71-82.06-18.72-84.24-73.11-292.58-73.11-292.58l381.91,61.19,86.39,82.59s15.49,141.87-93.35,208.24Z"/>
  <path class="cls-36" d="m957.22,790.03l6.51,53.66c-106.37,32.03-234.56-9.48-250.71-82.06-2.38-10.77-5.35-23.58-8.75-37.71,40.95,20.08,91.54,43.79,131.13,58.85,45.9,17.47,86.35,21.4,121.82,7.26Z"/>
  <line class="cls-20" x1="963.72" y1="843.7" x2="948.08" y2="714.42"/>
  <path class="cls-36" d="m1014.84,821.07l-41.34-39c19.78-11.59,37.91-29.59,54.45-54.88,27.84-42.57,29.19-113.43,25.1-167.06l55.15,52.7s15.49,141.87-93.35,208.24Z"/>
  <path d="m1098.86,604.75s-76.27-26.31-104.31,66.96c-27.18,90.42-194.05-97.91-194.05-97.91l205.85-74.89,92.51,105.84Z"/>
  <polyline class="cls-43" points="478.44 1040.46 971.56 680.59 936.92 508.06 723.68 636.54 723.68 636.54 363.4 997.21 252.56 1038.85"/>
  <path class="cls-1" d="m1074.83,73.67l-28.23-38.26,9.42-10.58c6.17-6.93,5.79-17.49-.86-23.96h0l-86.61,84.74-239.13,224.19v-.04s-41.25,32.68-51.1-5.65l-42.83,40.08s28.78,14.82,30.81,24.79h0l-19.29,18.08c-37.62,35.27-42.45,93.29-11.18,134.29l87.83,115.18,213.25-128.48-23.85-113.48,131.16-307.27,13.5,1.69,15.24-7.6c2.89-1.44,3.77-5.13,1.86-7.73Z"/>
  <path class="cls-41" d="m538.55,536.56l19.87,124.12c17.23,74.1,119.07,83.19,149.14,13.31l16.11-37.45-103.3-135.46c-.77-1.01-1.56-1.98-2.37-2.92-29.85-34.61-86.68-6.72-79.46,38.4Z"/>
  <path d="m723.68,636.54l-16.12,37.45c-30.08,69.88-131.93,60.79-149.13-13.31l-5.81-36.36c1.16,1.45,32.59,38.5,123.21-50.52l47.85,62.74Z"/>
  <path class="cls-8" d="m723.68,636.54l-16.12,37.45c-.55,1.27-1.12,2.53-1.73,3.78-21.97,45.16-77.8,62.22-122.44,39.2-28.64-14.77-63.7-32.86-63.7-32.86,0,0,109.51-29.77,138.51-133.43l65.48,85.86Z"/>
  <path class="cls-42" d="m704.74,611.68l-6.08-7.96c-9.31,9.77-22.42,15.85-36.95,15.85-1.49,0-2.97-.1-4.46-.23-3.7-9.91-9.87-18.62-17.8-25.33-1.75,2.87-3.57,5.68-5.45,8.39,4.62,4.06,8.49,8.95,11.36,14.43-5.71-1.95-10.96-4.85-15.55-8.55-1.98,2.67-4.03,5.25-6.14,7.76,7.43,6.01,16.28,10.27,26.02,12.25.96,3.93,1.55,7.99,1.55,12.25,0,16.14-7.56,30.53-19.3,39.9l-14.01-19.61c-1.06-1.48-3.12-1.83-4.61-.77-1.48,1.06-1.83,3.12-.77,4.61l13.95,19.53c-7.7,4.66-16.69,7.4-26.32,7.4-5.71,0-11.16-.99-16.25-2.71-.4-11.13-3.8-21.46-9.41-30.31-2.84,1.82-5.68,3.5-8.45,5.12,3.86,6.04,6.47,12.91,7.5,20.34-6.44-3.96-11.95-9.31-16.08-15.65-3.1,1.65-6.08,3.1-8.88,4.46,6.08,9.74,14.86,17.6,25.3,22.62-.46,5.18-1.68,10.17-3.57,14.79,2.94,1.52,5.91,3.07,8.82,4.56,2.08-4.92,3.57-10.2,4.29-15.72,5.32,1.52,10.93,2.41,16.74,2.41,11.78,0,22.75-3.42,32.09-9.23l9.03,12.64c.65.9,1.66,1.38,2.69,1.38.66,0,1.34-.2,1.92-.62,1.48-1.06,1.83-3.12.77-4.61l-8.99-12.58c14.25-11.17,23.46-28.5,23.46-47.95,0-3.83-.4-7.53-1.09-11.13.56,0,1.09.07,1.65.07,16.78,0,31.97-6.8,43.03-17.8Z"/>
  <path class="cls-4" d="m514.84,1033.06s-69.59-27.01-120.07-4.7l-21.38-11.1,6.31-8.32s58.21-43.47,145.1,7.07l-9.96,17.04Z"/>
  <path class="cls-8" d="m654.6,379.96s-30.02,65.37,18.8,141.1c48.82,75.73,69.9,103.65,69.9,103.65l-59.62,117.17s-50.38-177.6-63.76-229.23c-13.39-51.63-3.91-91.37,10.88-105.98,14.79-14.61,23.8-26.72,23.8-26.72Z"/>
  <path class="cls-19" d="m537.92,1050.66l393.01-307.65-207.25-106.47-328.93,329.28s89.51,2.62,143.17,84.83"/>
  <line class="cls-20" x1="486.39" y1="998.11" x2="791.98" y2="671.63"/>
  <path d="m936.91,508.05l-213.23,128.49-87.84-115.18c-17.04-22.36-2.27-95.41,1.56-121.43,6.6,15.22,36.34,20.86,67.34-9.32,41.9-40.78,18.94-75.44,18.94-75.44l81.3-76.22,118.29,131.63-10.2,24.01,23.84,113.47Z"/>
  <path d="m982.71,230.76l-52.7,123.93c-14.4-1.55-28.56-6.57-41.08-16.12-35.37-26.88-49.43-80.54-54.69-127.04l122.28-114.69h.03s-10.47,80.38,26.15,133.91Z"/>
  <path d="m662.84,376.67s-14.31,76.29,12.64,118.88c21.58,34.11,63.04,109.63,67.83,129.16l-17.17,10.34s-138.99-157.64-63.3-258.39Z"/>
  <path class="cls-51" d="m845.66,1053.92l123.21-79.01-10.4-24.55-39.27-198.17,61.82-46.62c20.32-18.61,25.97-48.38,13.88-73.15l-57.97-124.37-213.25,128.48c-41.45,24.05-51.12,51.18-26.94,98.66l156.41,253.98-41.48,64.75"/>
  <path class="cls-4" d="m909.07,988.37s3.05-43.66,47.06-49.79l2.34,11.78s-14.76-6.76-29.17,40.52l-20.23-2.52Z"/>
  <path class="cls-2" d="m743.3,624.72l-23.12,45.47c-20.94-30.22-51.09-74.4-78.76-117.3-20.51-31.83-27.11-61.82-27.87-85.92-.03-.83-.03-1.62-.03-2.41.1-27.67,7.66-59.3,18.59-67.57,18.5-13.99,34.2-28.01,34.2-28.01,0,0-40.9,77.68,7.08,152.08,48.84,75.72,69.91,103.66,69.91,103.66Z"/>
  <path class="cls-19" d="m981.03,705.56l-61.83,46.63,39.27,198.16c-51.48-6.97-158.62,39.92-158.62,39.92l-106.64-253.64c-24.17-47.45-10.98-76.06,30.47-100.1l213.23-128.49,68.3,70c32.94,66.49-3.87,108.92-24.18,127.51Z"/>
  <path class="cls-2" d="m981.04,705.56l-50.16,37.81c0-.1.03-.23.07-.36,34.18-147.21-84.87-178.82-86.49-179.25l92.46-55.71,68.29,70.01c32.92,66.47-3.86,108.91-24.17,127.5Z"/>
  <path class="cls-8" d="m714.08,324.2s15.49,159.77,85.78,193.8c70.29,34.04,207.72,3.07,308.34,94.85l-195.13-218.27,67.9-41.74s-49.66-114.78-24.42-255.96l-242.47,227.33Z"/>
  <path class="cls-42" d="m937.49,346.74c-.13-1.35-.2-2.74-.2-4.13,0-9.08,2.87-18.29,7.86-26.81.73.03,1.42.07,2.15.07,7.03,0,13.8-1.29,20.14-3.67-.83-3.07-1.68-6.31-2.54-9.68-3.96,1.62-8.12,2.64-12.42,3.14,3.17-3.7,6.74-7.13,10.67-10.24-.79-3.37-1.59-6.87-2.34-10.47-8.09,5.71-15.06,12.71-20.51,20.44-20.27-3.05-37.19-19.07-44.77-40.86l22.92-16.16c1.49-1.05,1.85-3.11.8-4.6-1.05-1.49-3.11-1.85-4.6-.8l-21.12,14.89c-1.48-6-2.3-12.34-2.3-18.91,0-27.44,13.9-51.05,33.72-61.42,7.23,4.92,15.55,8.52,24.57,10.37-.1-3.34-.13-6.74-.1-10.17-4.43-1.06-8.62-2.61-12.55-4.59,3.37-.76,6.87-1.19,10.44-1.19.73,0,1.45.03,2.18.1.03-3.27.1-6.6.23-9.94-.79-.03-1.58-.07-2.41-.07-7.4,0-14.5,1.45-21.13,4.06-7.99-6.6-13.94-15.29-16.71-25.1l-7.96,7.46c3.24,8.49,8.45,16.12,15.09,22.42-20.94,12.91-35.27,38.57-35.27,68.06,0,8.74,1.3,17.13,3.62,24.97l-51.56,36.36c-1.49,1.05-1.85,3.11-.8,4.6.65.91,1.66,1.4,2.7,1.4.66,0,1.32-.2,1.9-.6l49.96-35.24c8.69,22.45,26.33,39.23,47.6,44.03-5.48,10.6-8.22,22.06-7.13,33.22v.03c1.12,11.52,6.14,21.66,14.3,29.13l8.88-5.48c-7.73-5.98-12.32-14.46-13.31-24.63Z"/>
  <path class="cls-20" d="m958.47,950.36c-51.48-6.97-158.62,39.92-158.62,39.92l-106.64-253.64c-24.17-47.45-10.98-76.06,30.47-100.1l90.4-54.48"/>
  <path class="cls-42" d="m868.84,421.77s38.8-18.11,95.39,30.03l-51.16-57.23-44.23,27.2Z"/>
  <polyline class="cls-20" points="905.3 730.54 919.2 752.19 887.62 749.74"/>
  <path class="cls-2" d="m1108.2,612.83c-100.62-91.77-238.06-60.79-308.33-94.84-70.31-34.05-85.79-193.81-85.79-193.81l35.67-33.42s15.85,173.81,92.7,189.49c49.53,10.11,116.39,15.55,178.54,35.03l87.21,97.55Z"/>
  <g>
    <path class="cls-19" d="m651.51,462.12c-.51-3.69-.88-7.34-1.11-10.92l-36.49,22.18c.26,3.52.65,7.15,1.18,10.87l36.42-22.13Z"/>
    <path class="cls-19" d="m658.94,492.11l-42.8-1.44c.61,3.26,1.34,6.6,2.2,9.99l44.75,1.5c-1.53-3.36-2.92-6.71-4.15-10.05Z"/>
    <path class="cls-19" d="m624.01,408.47l27.37,12.32c.44-3.52.97-6.91,1.57-10.16l-23.78-10.7c-1.85,2.23-3.58,5.12-5.17,8.54Z"/>
    <path class="cls-19" d="m683.05,535.97c-1.79-2.75-3.62-5.57-5.5-8.47l-32.27,31.36c1.83,2.82,3.67,5.64,5.51,8.46l32.26-31.35Z"/>
    <path class="cls-19" d="m733.68,611.35c-1.67-2.38-3.58-5.1-5.71-8.18l-33.4,29.71c1.91,2.8,3.78,5.55,5.63,8.25l33.49-29.78Z"/>
    <path class="cls-19" d="m712.72,580.84l-49.23,5.78c2.05,3.1,4.1,6.18,6.15,9.25l49.34-5.79c-1.96-2.88-4.05-5.96-6.26-9.24Z"/>
  </g>
  <g>
    <path class="cls-19" d="m785.3,426.25c-1.78-3.54-3.48-7.18-5.1-10.88l-28.48,48.52c1.76,3.48,3.59,6.88,5.51,10.19l28.07-47.83Z"/>
    <path class="cls-19" d="m806.24,457.92l-47.51,18.71c1.76,2.92,3.58,5.75,5.47,8.49l49.73-19.58c-2.67-2.33-5.23-4.88-7.7-7.62Z"/>
    <path class="cls-19" d="m720.86,367.69l29.95-67.57c-.75-5.93-1.06-9.35-1.06-9.35l-9.62,9.01-22.42,50.58c.87,5.22,1.91,11.06,3.15,17.33Z"/>
    <path class="cls-19" d="m768.53,383.73l-41.19,12.56c.81,3.15,1.67,6.35,2.57,9.57l41.69-12.71c-1.07-3.13-2.1-6.28-3.08-9.42Z"/>
    <path class="cls-19" d="m825.51,527.12l9.64-48.88c-3.2-1.12-6.29-2.54-9.27-4.2l-9.92,50.3c3.09,1,6.28,1.92,9.55,2.78Z"/>
    <path class="cls-19" d="m959.14,500.01l-15.64,43.88c3.31.48,6.64.98,9.97,1.52l15.47-43.41c-3.27-.68-6.54-1.35-9.81-1.99Z"/>
    <path class="cls-19" d="m1033.33,566.42c3.11,1.25,6.22,2.56,9.31,3.93l5.09-25.15-8.24-9.21-6.17,30.43Z"/>
    <path class="cls-19" d="m991.27,507.06c-3.88-.96-7.77-1.87-11.66-2.75l19.4,50.71c3.98,1.08,7.96,2.24,11.94,3.47l-19.68-51.44Z"/>
    <path class="cls-19" d="m889.29,488.31l-50.17,41.94c4.14.83,8.39,1.58,12.73,2.28l50.47-42.19c-4.4-.68-8.74-1.36-13.03-2.02Z"/>
    <path class="cls-19" d="m926.38,494.16c-3.39-.56-6.75-1.1-10.09-1.63l4.38,48.39c3.33.4,6.69.81,10.06,1.24l-4.35-48Z"/>
  </g>
  <path class="cls-20" d="m774.47,267.56s-12.63,35.46,5.48,65.14"/>
  <line class="cls-20" x1="714.07" y1="324.18" x2="956.55" y2="96.87"/>
  <line class="cls-20" x1="621.69" y1="519.39" x2="666.31" y2="680.39"/>
  <path class="cls-20" d="m641.44,590.63c-39.93,71.22-121.74,93.48-121.74,93.48l63.7,32.86"/>
  <polyline class="cls-20" points="890.93 423.55 913.07 394.57 1047.51 544.96"/>
  <path class="cls-20" d="m763.67,366.72s20.73,103.74,78.77,113.53c58.04,9.79,111.02,18.66,111.02,18.66"/>
  <line class="cls-20" x1="657.3" y1="577.25" x2="690.18" y2="626.43"/>
  <path d="m690.43,321.11v.03s-22.46,20.97-24.11,47.85c-2.05-9.97-30.81-24.8-30.81-24.8l42.83-40.09c2.44,9.54,6.87,14.69,12.09,17.01Z"/>
  <circle class="cls-34" cx="648.5" cy="298.21" r="47.78" transform="translate(203.74 856.48) rotate(-76.15)"/>
  <line class="cls-20" x1="919.2" y1="752.19" x2="945.74" y2="886.11"/>
  <path class="cls-20" d="m887.62,537.2s71.18,32.27,42.91,57.82c-17.83,16.11-49.9,38.09-74.61,54.83-21.21,14.37-45.58,23.35-71.04,26.19l-1.4.16s20.9,14.85,55.64,19.65c0,0-34,9.5-47.14,7.15,0,0,5.01,11.48,34.14,11.42h0c-10.66,10.45-14.37,26.1-9.52,40.23l70.26,204.96"/>
  <path class="cls-20" d="m1108.2,612.83c-100.62-91.77-238.06-60.79-308.33-94.84-70.31-34.05-85.79-193.81-85.79-193.81"/>
  <path class="cls-20" d="m613.52,464.56c.1-27.67,7.66-59.3,18.59-67.57,18.5-13.99,34.2-28.01,34.2-28.01"/>
  <line class="cls-20" x1="363.4" y1="997.21" x2="657.3" y2="703"/>
  <line class="cls-20" x1="551.46" y1="617.18" x2="538.55" y2="536.56"/>
  <path class="cls-20" d="m519.69,668.71s6.31-46.75,29.49-65.73"/>
  <path class="cls-20" d="m993.04,768.03s66.65-48.18,61.52-150.85"/>
  <path class="cls-20" d="m987.98,795.75l26.86,25.33s66.96-29.3,88.17-130.47"/>
  <path class="cls-20" d="m1005.21,578.05s39.21,65.07-12.17,115.21"/>
  <line class="cls-20" x1="537.92" y1="1050.66" x2="754.09" y2="881.44"/>
  <path d="m693.22,736.64s45.4,124.38,17.64,178.64l43.24-33.85-60.88-144.79Z"/>
  <path class="cls-20" d="m394.75,965.82s60.7,3.59,109.3,45.85"/>
  <polyline points="288.96 1040.46 276.55 1022.7 301.07 1013.43 324.11 1040.46"/>
  <polyline points="358.57 1040.46 327.08 1000.87 362.23 986.43 404.15 1040.46"/>
  <path d="m873,1053.92l108.73-69.53-6.39-13.45-39.48,25.15s-35.06-33.96-87.55-14.75l-13.02,20.17s41.12-20.29,75.4,10.72l-18.86,12.09s-35.67-24.79-65.73-9.89l-10.44,17.52s20.73-19.3,53.16,7.12"/>
  <line class="cls-20" x1="362.23" y1="986.43" x2="404.15" y2="1040.46"/>
  <polyline class="cls-20" points="358.57 1040.46 327.08 1000.87 338.74 996.08"/>
  <path class="cls-20" d="m826.12,1014.42s27.97-15.14,65.73,9.89"/>
  <path class="cls-20" d="m848.32,981.33s45.22-21.7,87.55,14.75"/>
  <polyline class="cls-20" points="324.11 1040.46 301.07 1013.43 288.96 1018.01"/>
  <path class="cls-20" d="m429.28,1020.04s37.57-4.12,85.56,13.02"/>
  <polyline class="cls-20" points="975.34 970.93 981.73 984.38 873 1053.92"/>
  <path class="cls-20" d="m943.11,959.61s-8.99,15.17-13.81,31.28"/>
  <path class="cls-20" d="m629.25,547.41s-32.01,17.31-45.05,13.51c-13.04-3.8-10.87-20.45-10.87-20.45"/>
  <path class="cls-20" d="m561.61,527.5s5.54,24.79,20.1,6.36"/>
  <path class="cls-20" d="m597.96,532.52s4.31,10.9,2.73,26.87"/>
  <path class="cls-20" d="m613.51,527.5s5.14,8.62,5.93,24.73"/>
  <path d="m594.16,560.92c16.02-2.22,31.12-2.25,41.36,9.26l-6.26-22.77c-16.16,8.16-27.51,12.38-35.1,13.51Z"/>
  <path class="cls-20" d="m953.58,242.94s5.1,51.05,27.39,109.89l-118.87,73.08"/>
  <path d="m666.31,256.76s-1.19,16.51-16.08,33.3l-7.74-11.92s-.51,36.05-7.34,41.43c-10.1,13.76-5.91,20.15,2.57,40.11,0,0-8.42,5.78-25.06-13.03l-4.64,10.19s-17.62-4.3-20.12-26.57l-10.65,7.08s-14.8-40.26-1.74-51.46c0,0-1.27-28.47,13.11-46.32l2.99,4.57s15.91-21.82,34.23-24.58v5.68s39.16-11.26,56.6,1.41l-5.62,6.47s38.5,8.75,13.62,42.17c0,0-8.39-14.29-24.12-18.53Z"/>
  <line class="cls-20" x1="1056.03" y1="24.83" x2="1033.19" y2="48.59"/>
  <line class="cls-20" x1="1055.17" y1="47.02" x2="1024.03" y2="77.16"/>
  <path class="cls-20" d="m1057.73,89s-27.84.2-38.14-17.51"/>
  <line class="cls-20" x1="1063.38" y1="58.16" x2="1036.88" y2="85.08"/>
  <path class="cls-20" d="m1018.36,42.32l25.39,10.88-2.9,3.22c-3.72,4.12-8.93,6.59-14.47,6.84l-17.75.82"/>
  <line class="cls-20" x1="1048.37" y1="87.82" x2="1071.73" y2="69.47"/>
  <line class="cls-20" x1="1028.93" y1="123.16" x2="990.18" y2="213.94"/>
  <path class="cls-20" d="m1007.88,174.86s40.6,68.4,19.55,125.28"/>
  <path class="cls-20" d="m650.23,290.06c12.26-10.44,16.08-33.3,16.08-33.3,0,0,22,5.74,28.36,29.13"/>
  <path class="cls-20" d="m642.49,278.14s-.22,31.09-5.35,38.7"/>
  <path class="cls-20" d="m625.83,219.56s-16.76.59-34.23,24.58"/>
  <path class="cls-20" d="m651.87,238.95s14-8.68,24.94-5.84c10.94,2.85,23.75,10.32,21.99,23.65"/>
  <path class="cls-20" d="m587.9,330.27l-10.65,7.08c-15.49-43.27-1.74-51.46-1.74-51.46"/>
  <path class="cls-20" d="m608.02,356.83s-29.98-8.41-16.42-41.77"/>
  <path class="cls-20" d="m608.02,329.23s2.43,33.4,29.7,30.45"/>
  <path class="cls-20" d="m594.16,265.07s6.49-14.63,21.98-22.12l.33,11.06"/>
  <path class="cls-20" d="m625.83,225.24s34.96-11.73,56.6,1.41"/>
  <path class="cls-20" d="m594.16,290.04s-2.13,13.66,11.16,14.07l2.71-6.62"/>
  <g>
    <path class="cls-18" d="m416.29,252.31l94.61,344.06s1.09,97.44-109.66,53.98l15.05-398.04Z"/>
    <path class="cls-20" d="m425.58,581.83s6.08-17.14,28.74-16.59"/>
    <path class="cls-20" d="m428.79,633.9s12.38,8.66,29.64,1.79"/>
    <path class="cls-20" d="m429.88,651.49s14.01,6.38,25.64,0"/>
    <line class="cls-20" x1="454.52" y1="596.23" x2="426.96" y2="604.24"/>
    <path d="m459.32,399.28s-18.53,20.52-49.31,29.3l6.99-176.28,42.31,146.97Z"/>
    <path class="cls-9" d="m438.44,273.17l56.77,102.98s-57.53,50.73-102.52,27.05l-22.44-204.45,2.37,1.64c27.28,18.84,49.81,43.75,65.81,72.79Z"/>
    <path class="cls-36" d="m495.2,376.16s-57.53,50.72-102.52,27.03l.51-16.19c42.94-3.01,70.07-19.92,87.05-37.98l14.96,27.15Z"/>
    <path class="cls-20" d="m461.94,315.81l33.25,60.34s-16.97,15.29-35.87,23.12"/>
    <line class="cls-20" x1="437.78" y1="601.1" x2="455.63" y2="604.4"/>
    <path d="m487.35,524.75s-38.6-.64-63.72,25.41l1.95,31.67s18.77-35.45,58.84-29.78l2.93-27.3Z"/>
    <rect class="cls-8" x="480.19" y="513.43" width="22.34" height="44.69" transform="translate(-128.96 156.71) rotate(-16.05)"/>
    <polyline class="cls-20" points="474.45 517.38 486.81 560.33 508.28 554.16"/>
    <line class="cls-20" x1="483.76" y1="514.71" x2="495.93" y2="511.21"/>
  </g>
  <path class="cls-9" d="m394.35,153.35l-9.16,30.06-3.39-6.47s-7.31,19.16-18.46,20.62l-6.59-9.58s-9.31,19.07-22.24,29.61l-10.03-31.09h-5.39s-5.99-13.15,0-27.2l-6.55,2.64,6.55-31.08,75.24,22.49Z"/>
  <polyline class="cls-20" points="319.11 159.29 312.55 161.93 319.11 130.86"/>
  <path class="cls-20" d="m385.19,183.4l-3.39-6.47s-6.96,18.46-18.46,20.62"/>
  <circle class="cls-37" cx="406.62" cy="139.99" r="15.41"/>
  <path class="cls-52" d="m303.69,115.44c0,8.51,6.9,15.41,15.41,15.41s15.41-6.9,15.41-15.41-6.9-15.41-15.41-15.41-15.41,6.9-15.41,15.41Z"/>
  <path class="cls-39" d="m247.51,213.92L63.23,348.54c-40.13,29.32-30.37,91.73,16.8,107.39l61.62,20.45h0c-6.03,5.72-6.9,15.03-2.02,21.77l.66.91c-8.36,3.69-10.89,14.34-5.09,21.39l3.54,4.3s53.04,14.41,70.55-30.54l38.22-280.29Z"/>
  <path d="m142.82,327.76s26.39,54.49,94.77,55.09c68.37.61,14.53-141.86,14.53-141.86l-109.29,86.77Z"/>
  <path class="cls-9" d="m270.39,193.52l-138.44,89.85s-17.91,65.66,93.65,83.75l44.79-173.6Z"/>
  <line class="cls-20" x1="108.75" y1="465.46" x2="155.62" y2="481.56"/>
  <line class="cls-20" x1="140.28" y1="499.06" x2="148.63" y2="495.25"/>
  <path class="cls-36" d="m232.75,339.49l-7.13,27.64c-111.58-18.1-93.65-83.78-93.65-83.78l18.29-11.89c-1.16,20.61,8.16,36.88,30.68,54.12,18.43,14.11,37.71,12.19,51.81,13.9Z"/>
  <path d="m63.73,983s34.8,34.03,188.86,41.04l17.71-170.45H96.12l-32.39,129.42Z"/>
  <path d="m456.45,983s-68.89,57.35-202.83,37.84l26.08-171.39h142.03l34.72,133.55Z"/>
  <polyline class="cls-28" points="252.11 1039.25 319.01 414.91 199.69 414.91 86.33 1008.83 7.8 1039.25"/>
  <polyline class="cls-25" points="252.11 1039.25 319.01 414.91 432.1 414.91 416.56 1008.83 509.06 1039.25"/>
  <path class="cls-17" d="m252.11,1039.25l1.52-14.16s-17.66.11-27.97-5.68c-13.36-7.51-28.76-10.57-44.08-10.57h-95.25l-78.53,30.42"/>
  <path class="cls-17" d="m252.11,1039.25l1.52-14.16s25.34.03,38.66-7.04c13.37-7.09,28.33-10.6,43.47-10.6h0l80.8,1.38,92.5,30.42"/>
  <path class="cls-2" d="m432.1,414.91l24.34,568.08s-134.72-87.27-196.71-14.8l59.28-553.28h113.1Z"/>
  <path class="cls-2" d="m199.69,414.91h119.32l-59.28,553.28s-139.96-27.07-196,14.81L199.69,414.91Z"/>
  <path class="cls-3" d="m255.74,1007.93c62.58-70.07,200.71-24.93,200.71-24.93l-8.99-209.56c-7.6-1.55-30.96,17.13-38.24,11.19-23.72-19.35,53.37-65.86-9.27-112.14,0,0,10.83,60.7-19.35,57.23-30.22-3.47-20.41-77.87,4.59-92.66,0,0-66.11-3.5-56.86,64.92,9.25,68.42,3.5,91.9-45.6,51.68l-5.68,56.44-21.3,197.84Z"/>
  <path class="cls-3" d="m63.73,983c59.02-48.18,190.82,34.71,190.82,34.71.53-.63,22.5-207.61,22.5-207.61-.1-.23-.2-.46-.3-.66-17.37-40.32-46.77-13.5-53.24-58.11-7.57-52.17,13.46-64.56,13.46-64.56,0,0-28.93,6.86-42.73,29.48-17.49,28.66-.8,68.95-19.36,80.08-18.56,11.13-40.16-11.13-19.58-46.23,20.54-35.07-1.52-52.51-1.52-52.51,5.32,20.47-14.84,47.61-34.06,51.51l-55.98,233.9Z"/>
  <path class="cls-4" d="m262.85,196.94h0c-20.84,14.33-34.91,36.56-38.93,61.53l-24.23,156.44h232.41c10.15-9.75,9.59-26.15-1.2-35.18l-5.25-4.4-19.09-117.04c-10.92-66.95-87.8-99.77-143.71-61.35Z"/>
  <path class="cls-20" d="m333.77,434.58s-1.88,45.35-21.26,40.95"/>
  <path class="cls-20" d="m410.09,414.91s-3.24,82.51,25.17,82.51"/>
  <path class="cls-20" d="m223.47,414.91s3.43,78.52-41.73,74.99"/>
  <path class="cls-20" d="m199.69,414.91h232.41s18.08-23.23-6.45-39.58l-15.93-97.64"/>
  <line class="cls-20" x1="219.88" y1="284.54" x2="199.69" y2="414.91"/>
  <path class="cls-19" d="m63.71,982.99c59.04-48.18,190.84,34.71,190.84,34.71.4-.46,12.91-117.49,19.09-175.61,0,0-15.32,59.31-39.73,52.04-24.07-7.17,10.17-71.2,11.16-73.08-1.65.59-56.63,21.23-52.57,65.45,4.13,44.91-31.6,59.08-44.42,41.58-12.85-17.47,25.2-44.45,12.61-63.11-12.58-18.69-27.38-23.08-27.38-23.08,0,0,9.21,45.31-14.73,55.51-23.91,10.24-22.55-49.4-22.55-49.4l-32.33,135Z"/>
  <line class="cls-20" x1="418.41" y1="330.96" x2="425.65" y2="297.75"/>
  <line class="cls-20" x1="211.96" y1="335.66" x2="205.5" y2="309.6"/>
  <path class="cls-53" d="m385.2,166.08s-18.32,12.67-14.94,32.67c0,0-16.29,12.71-32.27,8.38-18.46-5-23.46-26.55-23.46-26.55,0,0,16.08-18.89,6.12-40.59l64.55,26.09Z"/>
  <path class="cls-20" d="m314.52,180.58s14.68-16.6,6.12-40.59"/>
  <path class="cls-20" d="m292.61,183.4s-34.87,5.08-58.63,45.62"/>
  <path class="cls-20" d="m133.51,309.97s-3.23-8.66-1.54-26.62l49.86-32.35"/>
  <path class="cls-19" d="m255.74,1007.92c62.58-70.07,200.71-24.93,200.71-24.93l-5.18-120.76c-5.32-10.57-12.58-19.62-22.42-24.24,0,0,13.44,16.97-.49,36.89-13.94,19.91-53.79-4.95-38.67-44.48,0,0-28.33,20.84-25.39,56.11,2.97,35.27-35.76,48.18-45.27,37.88-9.54-10.34-3.3-47.82-3.3-47.82,0,0-19.85,4.26-20.74,25.2-.86,20.24-15.88,40.16-30.45,24.44l-8.78,81.73Z"/>
  <line class="cls-20" x1="202.83" y1="394.63" x2="156.65" y2="385.62"/>
  <line class="cls-20" x1="167.52" y1="375.33" x2="180.95" y2="390.36"/>
  <line class="cls-20" x1="433.91" y1="462.01" x2="443.09" y2="701.97"/>
  <path d="m328.32,143.11c3.83,9.18,8.52,18.36,13.74,24.3,13.94,15.88,30.94,13.18,30.94,13.18,0,0,0-.03.03-.03,4.49-9.15,12.15-14.46,12.15-14.46l-56.86-22.98Z"/>
  <path d="m255.74,1007.92c.43-.46.86-.92,1.32-1.39,6.9-7.5,14.73-13.64,23.18-18.59-14.93-35.86-10.34-99.89-10.07-114.03l-14.43,134.01Z"/>
  <circle class="cls-54" cx="362.31" cy="124.13" r="47.79" transform="translate(-15.46 61.18) rotate(-9.45)"/>
  <line class="cls-20" x1="190.34" y1="452.4" x2="106.54" y2="804.12"/>
  <g>
    <path d="m383.61,281.33c0,2.54-.96,4.89-2.58,6.64,1.85,2.08,4.56,3.4,7.56,3.4,5.55,0,10.04-4.49,10.04-10.04s-4.49-10.07-10.04-10.07c-3.01,0-5.71,1.32-7.56,3.4,1.62,1.78,2.58,4.13,2.58,6.67Z"/>
    <path d="m363.5,274.09c0,5.55,4.49,10.04,10.04,10.04,3.01,0,5.68-1.32,7.5-3.4-1.55-1.75-2.51-4.09-2.51-6.64s.96-4.89,2.51-6.67c-1.82-2.08-4.49-3.4-7.5-3.4-5.55,0-10.04,4.52-10.04,10.07Z"/>
  </g>
  <path d="m309.07,507.63l-5.35,49.92c10.33-43.54,41.63-58.46,41.63-58.46,0,0-20.91,6.41-36.28,8.53Z"/>
  <line class="cls-20" x1="252.11" y1="1039.25" x2="309.07" y2="507.63"/>
  <path class="cls-20" d="m349.71,497.42s-41.14,17.75-77.45,6.45"/>
  <path d="m432.92,430.81s-40.4-8.12-224.18-15.9h223.37l.81,15.9Z"/>
  <path class="cls-20" d="m284.42,330.96s133.94,40.64,77.89,37.24c-56.05-3.4-70.25-6.03-70.25-6.03"/>
  <path class="cls-20" d="m337.99,207.13c18.8,4.06,32.27-8.38,32.27-8.38,0,0,34.96,22.99,59.1,59.44"/>
  <line class="cls-20" x1="448.42" y1="795.82" x2="456.45" y2="983"/>
  <path d="m404.58,115.44l-1.45,15.41s4.72,7.51,1.45,15.55c0,0,13.8-15.73,3.49-44.5l-3.49,13.54Z"/>
  <path d="m334.52,85.25l-9.66,24.05s-9.11-.73-10.34,14.82c0,0-2.16-31.98,20-38.87Z"/>
  <path class="cls-8" d="m337.34,69l-6.67-3.68c22.8-6.04,45.9,1.43,45.9,1.43l-4.25-11.46s30.09,13.53,37.75,36.28l10.87,3c1.91,10.68-3.61,17.6-16.36,20.87,0,0-12.56-.81-21.58-15.41l-2.9,7.71s-18.81-6.57-23.35-18.45v8.05s-26.41,8.73-32.27-9.63c0,0,1.97-11.65,12.84-18.71Z"/>
  <path class="cls-20" d="m417.5,136.36s-7.51-4.64-9.98,15.13"/>
  <line class="cls-20" x1="410.09" y1="140.85" x2="412.51" y2="145.39"/>
  <path class="cls-20" d="m309.63,106.1s7.81.24,0,15.62"/>
  <line class="cls-20" x1="307.43" y1="115.44" x2="312.55" y2="110.74"/>
  <line class="cls-20" x1="316.9" y1="434.58" x2="310.76" y2="491.86"/>
  <path d="m339.95,1033.92c25.7,0,42.79-15.18,43.04-15.4,1.35-1.23,1.44-3.31.22-4.66-1.22-1.35-3.31-1.45-4.66-.23-1.34,1.21-33.37,29.38-75.89,1.68-1.53-.99-3.57-.56-4.57.96-.99,1.53-.56,3.57.96,4.57,14.95,9.74,28.87,13.07,40.9,13.07Z"/>
  <path d="m173.01,1031.53c22.08,0,41.02-10.07,42.24-10.73,1.6-.87,2.2-2.87,1.33-4.48-.87-1.6-2.87-2.2-4.48-1.33-.43.24-43.53,23.07-72.9-1.88-1.39-1.18-3.47-1.01-4.66.38-1.18,1.39-1.01,3.47.38,4.65,11.92,10.12,25.51,13.39,38.08,13.39Z"/>
  <path d="m335.76,1007.45l74.81,17.64c17.81-5.85,22.67-9.02,55.43,0l-49.43-16.26s-10.68-20.63-39.57-20.63-41.23,19.25-41.23,19.25Z"/>
  <path d="m181.58,1008.83l-75.66,14.56s-18.2-10.64-36.14-8.14l16.55-6.41s5.19-25.17,46.18-25.17,49.07,25.17,49.07,25.17Z"/>
  <line class="cls-20" x1="509.06" y1="1039.25" x2="416.56" y2="1008.83"/>
  <line class="cls-20" x1="86.33" y1="1008.83" x2="48.76" y2="1023.38"/>
  <path class="cls-20" d="m380.11,107.74s-29.23-8.62-23.35-29.28"/>
  <path class="cls-20" d="m356.76,97.34s-13.19,4.49-20.08,1.34"/>
  <line class="cls-20" x1="376.57" y1="66.75" x2="372.32" y2="55.29"/>
  <path class="cls-20" d="m398.64,73.81c7.18,6.5,11.44,17.76,11.44,17.76l-8.84-6.32,3.12,6.32"/>
  <path class="cls-20" d="m324.49,87.71s3.49-21.45,20.19-19.34"/>
  <path class="cls-20" d="m420.94,94.57s4.79,16.66-16.36,20.87c0,0-27.49-4.66-23.03-30.19"/>
  <line class="cls-20" x1="330.66" y1="65.32" x2="337.34" y2="69"/>
  <path class="cls-20" d="m254.55,1017.71s-67.07-41.01-124.11-48.53"/>
  <path class="cls-20" d="m396.78,970.71s-77.07-11.02-121.11,20.09"/>
  <g>
    <path class="cls-22" d="m397.19,1021.93c7.17-3.66,20.88-5.7,39.03-6.64l-68.05-.2,48.39-6.26s-19.73-12.91-80.8-1.38"/>
    <path class="cls-22" d="m181.58,1008.83s-71-22.69-95.25,0c25.08-5.23,51.35-2.6,78,2.63l-85.95.45c14.57.1,27.77,3.46,40.01,9.08"/>
    <path class="cls-22" d="m389.67,1002.66s68.7-26.92,49.97-37.74c-18.74-10.83-49.97,37.74-49.97,37.74Z"/>
    <path class="cls-22" d="m389.67,1002.66s-13.5-31.1-43.54-31.86c-30.04-.76,43.54,31.86,43.54,31.86Z"/>
    <path class="cls-22" d="m132.3,998.74s52.56-8.51,45.19-25.35c-7.38-16.84-45.19,25.35-45.19,25.35Z"/>
    <path class="cls-22" d="m132.3,998.74s-6.42-26.21-19.09-27.96c-12.66-1.75,19.09,27.96,19.09,27.96Z"/>
  </g>
  <line class="cls-20" x1="88.95" y1="882.22" x2="63.71" y2="982.99"/>
  <path class="cls-20" d="m315.79,1009.55s-13.44,3.1-23.5,8.5c-10.05,5.4-31.15,6.84-31.15,6.84"/>
  <path class="cls-20" d="m242.46,1024.28s-11.62-1.01-16.8-4.88c-5.18-3.87-24.19-10.44-35.52-10.24"/>
  <line class="cls-20" x1="131.64" y1="298.56" x2="66.3" y2="346.3"/>
  <path class="cls-14" d="m351.81,816.34l-9.79-49.63s14.59-5.99,18.96,2.31c4.37,8.3,55.82,82.78,55.82,82.78l-64.99-35.46Z"/>
  <path class="cls-9" d="m257.41,932.75s39.28-81.39,159.62-31.99v55.68s-137.84,51.3-159.62-23.69Z"/>
  <path d="m434.94,936.34s-18.99-9.41-18.99-30.28c0,0-10.39-3.94-9.36-18.66,1.02-14.72,43.21-77.41,43.21-77.41,0,0,20.77-32.17,75.12-10.7,63.25,24.99,21.38,96.26,21.38,96.26l-111.36,40.79Z"/>
  <path class="cls-9" d="m856.67,353.44s62.18-85.6,168.51,18.79l-10.65,135.23-185.84-25.42,27.98-128.6Z"/>
  <path class="cls-9" d="m880.22,1056.92v-118.65l159.71-16.93,19.77,54.11s-7.17,81.47-179.48,81.47"/>
  <path class="cls-10" d="m364.81,1056.92c-50.42,0-84.72-51.15-65.58-97.8l44.33-108.15s-1.88-42.53-24.4-63.37h0c8.79-7.25,21.6-6.86,29.93.92l67.7,63.26.56,118.78,53.21-69c44.84,0,120.6-20.79,134.25,21.92l42.64,133.43"/>
  <path d="m319.04,910.85s.21,24.59,97.99,27.42v18.17h-116.7l18.71-45.58Z"/>
  <path d="m647.44,1056.92l-180.13-183.61-49.95,97.27-.33-69.82s-48.84,56.3-159.62,31.99c0,0-2.51,124.18,107.4,124.18"/>
  <polygon points="512.37 814.14 1012.5 536.86 1002.73 660.7 750.89 830.32 512.37 814.14"/>
  <path class="cls-4" d="m668.24,1056.92c-63.24,0-138.75-52.1-185.09-104.37-35.84-40.43-18.59-109.59,26.08-139.98h0c18.91-12.86,42.03-18,64.6-14.37l185.94.53,166.28-523.49-66.07-77.18,8.89-14.62,166.42,60.78-52.07,660.33c-6.78,86.03-78.57,152.38-164.87,152.38"/>
  <path class="cls-30" d="m1025.19,372.23s-74.72,66.48-134.72,15.09l-30.47,95.94,154.55,24.2,10.65-135.23Z"/>
  <path class="cls-19" d="m776.62,1056.92c-13.67-62.02-18.53-150.38-16.84-258.17l96.89-445.31s23.53,165.32,168.51,18.79v.13l-41.97,532.19c-6.77,86.02-78.56,152.37-164.85,152.37"/>
  <path class="cls-4" d="m668.24,1056.92c-63.24,0-138.76-52.11-185.09-104.35-35.83-40.45-18.59-109.6,26.09-139.98,18.89-12.88,42-18.03,64.59-14.36l185.95.53c46.07,54.49,55.07,149.44,51.45,258.17"/>
  <polyline class="cls-27" points="880.22 1056.92 852.09 975.45 995.34 799.29 1032.35 998.08 1112.96 1043.46"/>
  <path class="cls-2" d="m776.62,1056.92c-13.67-62.02-18.53-150.38-16.84-258.17l45.17-207.61s-29.1,213.09,188.89,178.62l-10.63,134.8c-6.77,86.02-78.56,152.37-164.85,152.37"/>
  <polygon points="1029.58 1020.27 992.45 1001.39 982.52 936.55 1022.52 936.55 1032.35 998.08 1071.77 1020.27 1029.58 1020.27"/>
  <polyline class="cls-22" points="1071.77 1020.27 1029.58 1020.27 992.45 1001.39 982.52 936.55"/>
  <path class="cls-22" d="m1023.65,1017.25l36.05-3.78-48.29-2.45s21.98-7.56,31.23-7.16l-50.18-2.48s32.73-8.7,39.1-8.31c0,0-19.92-11.52-40.98-3.96,0,0,25.92-11.19,39.01-8.34l-42.56-14.79,40.11-.5"/>
  <circle class="cls-4" cx="943.36" cy="994.23" r="26.28" transform="translate(-241.57 1682.98) rotate(-76.67)"/>
  <path d="m848.09,1056.92s84.56-84.51,156.63-84.51c0,0-79.9,41.75-79.9,84.51"/>
  <path d="m647.44,1056.92s-255.85-40.41-180.13-183.61l102.71-15.49-60.78-45.24s3.09-14.3,47.89-23.26c44.8-8.96,152.22,6.41,152.22,6.41,0,0,34.71-39.74,50.43,3.01,0,0,123.11,112.74,16.84,258.19"/>
  <path class="cls-19" d="m647.44,1056.92l179.91-289.28c44.18-71.06,152.66-50.62,167.99,31.64l64.36,176.18s-53.84-42.7-179.48,81.47"/>
  <path class="cls-2" d="m880.22,1056.92l-34.09-98.72s-18.45,98.72-89.56,98.72"/>
  <line class="cls-20" x1="832.82" y1="919.65" x2="880.22" y2="1056.92"/>
  <line class="cls-20" x1="862.96" y1="1006.93" x2="826.56" y2="967.95"/>
  <path class="cls-20" d="m721.23,938.27l106.12-170.63c44.18-71.06,152.66-50.62,167.99,31.64l64.36,176.18s-31.9-23.5-97.7,15.92"/>
  <path class="cls-20" d="m759.78,798.75l96.89-445.31s4.08,30.7,16.48,47.01"/>
  <polygon class="cls-17" points="585.36 861.21 636.84 908.48 656.29 864.23 585.36 861.21"/>
  <path class="cls-7" d="m1049.11,561.41c-1.9-11.22-9.73-18.06-17.66-22.18l1.77-51.05c-11.16,5.93-18.51,17.15-19.51,29.74l-2.3,29.18h0s-1.57,19.95-1.57,19.95l-34.24,23.69c-9.79,6.77-15.72,17.85-15.92,29.75l-.53,30.64c-7.27,5.84-8.24,16.55-2.14,23.59l54.4-17.92c10.34-4.76,22.13-11.39,27.37-17.25,17.93-20.08,14.94-50.93,10.33-78.12Z"/>
  <line class="cls-20" x1="959.14" y1="651.12" x2="996.86" y2="635.93"/>
  <line class="cls-20" x1="957" y1="674.71" x2="1011.4" y2="656.79"/>
  <line class="cls-20" x1="959.54" y1="627.71" x2="1003" y2="603.98"/>
  <line class="cls-20" x1="975.59" y1="590.73" x2="1025.19" y2="556.43"/>
  <path class="cls-11" d="m472.26,807.66s3.01,21.95,36.98,4.92c0,0,21.27,18.56,5.18,37.3-16.08,18.74-47.12,23.43-47.12,23.43,0,0,2.4-12.09-46.6-30.22l51.56-35.43Z"/>
  <g>
    <path class="cls-22" d="m480,901.04s34.79,4.41,58.7-11.92"/>
    <path class="cls-22" d="m564.09,799.29s26.91,6.79,16.34,43.8"/>
    <path class="cls-22" d="m432.27,877.19s10.29,13.76,26.85,12.07"/>
    <path class="cls-22" d="m483.2,810.89s15.26-6.33,26.04,1.7"/>
    <line class="cls-22" x1="439.17" y1="928.11" x2="465.32" y2="877.19"/>
    <line class="cls-22" x1="529.35" y1="894.3" x2="504.13" y2="908.76"/>
    <path class="cls-22" d="m626.68,787.51l82.67,8.22s17.51-19.9,35.53-15.63"/>
    <line class="cls-22" x1="709.35" y1="795.73" x2="660.97" y2="908.59"/>
    <path class="cls-22" d="m656.29,771.03s5.81,15.6,33.74,22.78"/>
    <path class="cls-22" d="m476.52,980.43s25.6,34.73,70.46,46.88"/>
    <path class="cls-22" d="m660.97,949.76s24.43,4.48,24.19,25.69"/>
    <polyline class="cls-22" points="417.36 998.08 417.36 970.58 426.1 988.28"/>
    <path class="cls-22" d="m273.24,935.75s29.82,5.9,68.78.6"/>
  </g>
  <path class="cls-6" d="m623.57,997.53c-.84,0-1.69-.32-2.33-.97-14.79-14.79-9.97-44.22-5.31-72.69,2.23-13.65,4.34-26.55,4.34-37.53,0-31.63-53.17-51.7-53.71-51.9-1.71-.63-2.58-2.53-1.95-4.24.64-1.71,2.54-2.59,4.24-1.95,2.37.88,58.02,21.92,58.02,58.1,0,11.52-2.15,24.67-4.43,38.6-4.39,26.82-8.93,54.56,3.46,66.95,1.29,1.29,1.29,3.38,0,4.67-.65.65-1.49.97-2.33.97Z"/>
  <path class="cls-6" d="m526.4,1041.04c-18.91-37.82,6-71.38,26.01-98.35,7.59-10.23,14.76-19.89,18.03-28,2.7-6.68,2.74-12.93.13-18.59-6.11-13.25-24.62-19.59-24.81-19.66-1.73-.58-2.66-2.45-2.08-4.18.58-1.73,2.43-2.65,4.18-2.09.87.29,21.37,7.28,28.7,23.13,3.41,7.39,3.42,15.41,0,23.85-3.59,8.9-11.01,18.89-18.85,29.47-18.94,25.52-42.5,57.27-25.4,91.46"/>
  <polyline class="cls-20" points="916.78 432.91 894.06 620.66 903.97 630.95 887.47 632.54 905.57 648.51 878.36 646.63 889.29 658.5 880.22 727.6"/>
  <path class="cls-20" d="m924,1017.77l-43.78-144.45h-17.26l7.87-22.6-14.16,8.94-6.07-34.42-8.9,63.88-9.65-6.82-57.13,107.59c-9.93,18.69-29.36,30.38-50.53,30.38h-54.15"/>
  <path class="cls-20" d="m880.22,1003.87s14.85-41.26,97.78-75.76"/>
  <path class="cls-20" d="m862.96,451.63s47.39,64.92,118.31,8.74"/>
  <path d="m457,860.63c-6.77-4.79-17.9-10.73-36.29-17.53l51.55-35.43s-13.14,31.55-15.26,52.97Z"/>
  <circle class="cls-50" cx="426.1" cy="795.31" r="47.79"/>
  <path class="cls-9" d="m441.56,687.11s35.03,17.47,23.76,40.48c-11.27,23.02-35.65,58.18-35.65,58.18l9.5,11.29-4.08,6.56s9.66,7.34,11.39,17.91c1.86,11.32-9.07,28.35-9.07,28.35l-20.61,1.91-47.23-44.13,8.75-62.78,5.99,7.86,12.06-44.95,6.54,7.54,20.98-52.06,3.83,18.58,13.85,5.26Z"/>
  <path class="cls-36" d="m441.97,841.42c-40.49-7.93-28.56-27.51-26.52-32.92,2.05-5.38,14.2-22.72,14.2-22.72l9.51,11.29-4.06,6.54s9.64,7.36,11.36,17.93c1.02,6.18-1.75,14.03-4.49,19.88Z"/>
  <path class="cls-16" d="m449.36,821.53c0,6.07-6.65,10.98-14.84,10.98s-14.84-4.92-14.84-10.98,6.65-10.98,14.84-10.98,14.84,4.92,14.84,10.98Z"/>
  <path class="cls-20" d="m431.64,689.75s-7.31-.26-5.54,10.78c1.77,11.04,17.29,24.46,33.02,20.52"/>
  <path class="cls-20" d="m426.1,721.75s6.18,10.19,26.14,12.84l-26.14,2.16,9.97,3.56-10.25,4.03-9.03,13.19"/>
  <path class="cls-20" d="m393.87,775.15s.52,6.97,12.65,10.63"/>
  <path class="cls-20" d="m416.8,851.8l-64.09-59.89s-16.22-18.56-33.54-4.3c0,0,18.99,11.89,24.4,63.37l-19.19,46.81"/>
  <line class="cls-20" x1="342.02" y1="766.71" x2="345.88" y2="786.28"/>
  <path class="cls-20" d="m257.41,932.75s17.14-33.59,57.29-43.87"/>
  <path class="cls-20" d="m424.7,825.43s-2.6-5.92,3.54-9.1c6.14-3.18,14.24.67,14.24.67"/>
  <line class="cls-20" x1="432.27" y1="815.17" x2="434.52" y2="823.17"/>
  <line class="cls-20" x1="439.17" y1="797.07" x2="435.09" y2="803.62"/>
  <line class="cls-20" x1="432.27" y1="795.31" x2="426.1" y2="807.66"/>
  <path class="cls-20" d="m418.56,803.62s-12.73,17.15-1.76,26.7"/>
  <path class="cls-22" d="m269.26,993.3s17.08,63.62,95.54,63.62"/>
  <path class="cls-20" d="m391.25,827.92s11.3,14.73,8.94,27.02"/>
  <path class="cls-27" d="m859.99,198.05l66.07,77.18c-1.48.77-20.53,64.64-20.53,64.64l39.51,20.6c43.48,26.86,80.82,3.35,80.82,3.35l9.43-119.61-166.42-60.78-8.89,14.62Z"/>
  <polygon class="cls-4" points="926.94 222.55 925.74 243.18 897.57 241.95 859.99 198.05 926.94 222.55"/>
  <polygon class="cls-42" points="859.99 198.05 1033.92 261.69 1035.29 244.22 868.87 183.43 859.99 198.05"/>
  <path d="m926.06,275.24l-28.49-33.28,28.17,1.23,37.27,30.17-17.97,87.12s-44.78,6.49-47.47-23.59l28.49-61.65Z"/>
  <path class="cls-4" d="m1022.3,312.77c0,13.24-10.73,23.96-23.97,23.96s-23.97-10.73-23.97-23.96,10.73-23.97,23.97-23.97,23.97,10.73,23.97,23.97Z"/>
  <polyline class="cls-22" points="945.04 360.47 963.01 273.35 925.74 243.18 897.57 241.95"/>
  <path class="cls-22" d="m904.04,322.88s15.45,20.29,48.8,18.6l-44.12-28.72,48.88,7.63-42.13-22.26,45.47,3.68-38.83-18.05,41.93-1.68-37.98-6.86,27.85-16.32-37.12,5.48,22.31-18.45-32.8,6.21"/>
  <path class="cls-20" d="m1016.11,328.85c-4.39,4.84-10.72,7.89-17.77,7.89-13.24,0-23.97-10.73-23.97-23.96s10.73-23.97,23.97-23.97"/>
  <line class="cls-20" x1="1035.29" y1="244.22" x2="1017.69" y2="467.44"/>
  <line class="cls-20" x1="1002.73" y1="660.7" x2="992.42" y2="787.62"/>
  <polyline class="cls-20" points="894.47 238.34 859.99 198.05 868.87 183.43"/>
  <line class="cls-20" x1="892.32" y1="209.88" x2="998.34" y2="248.67"/>
  <polyline class="cls-4" points="1016.29 1043.46 1029.58 1020.27 1071.77 1020.27 1112.96 1043.46"/>
  <path class="cls-20" d="m963.01,369.02s28.68,14.29,62.85-5.2"/>
  <path class="cls-20" d="m897.75,426.19s43.96,36.4,127.43-53.96"/>
  <line class="cls-20" x1="885.53" y1="402.83" x2="897.57" y2="364.94"/>
  <line class="cls-20" x1="378.31" y1="744.88" x2="369.57" y2="807.66"/>
  <polyline class="cls-20" points="396.36 707.8 402.9 715.33 423.88 663.27"/>
  <rect class="cls-5" x="4" y="10" width="1121" height="1131.7"/>
  <g>
    <g>
      <g>
        <path class="cls-27" d="m534,357.33c-.07-19.5.62-38.8,1.79-57.23l64,20.1-63.39-29.09c.27-3.75.56-7.44.87-11.1l56.43,8.34-54.73-26.9c1.03-10.22,2.15-19.92,3.29-28.95l47.39,7.72-45.38-22.82c4.4-31.41,8.54-51.57,8.54-51.57,0,0,90.89,67.09,79.83,153.03-11.06,85.95-83.08,164.76-83.08,164.76-8.51-28.35-12.9-60.54-14.65-93.29l45.1-6.9-46.01-26.11Z"/>
        <g>
          <path class="cls-17" d="m585.79,315.81l-49.99-15.71c-1.17,18.44-1.86,37.74-1.8,57.23l46.01,26.12-45.09,6.89c1.74,32.76,6.15,64.95,14.65,93.29,0,0,24.73-27.06,47.42-66.77,2.01-28.67.18-63.59-11.2-101.06Z"/>
          <path class="cls-17" d="m574.61,285.55l-37.34-5.53c-.31,3.65-.59,7.35-.87,11.09l48.67,22.34c-2.88-9.17-6.34-18.5-10.46-27.9Z"/>
          <path class="cls-17" d="m542.27,232.5c-1.14,9.05-2.27,18.73-3.3,28.97l31.77,15.61c-6.97-14.62-15.59-29.43-26.16-44.21l-2.31-.37Z"/>
        </g>
        <path d="m569.19,385.11l-34.27,5.23c1.74,32.76,6.14,64.94,14.65,93.27.56-1.01,25.97-47.25,19.62-98.51Z"/>
        <path d="m534.95,315.3c-.65,13.74-1.01,27.83-.96,42.03l33.85,19.21c-4.06-20.84-13.78-42.13-32.89-61.23Z"/>
        <path class="cls-27" d="m503.37,426.92c-2.82-4.02-5.53-8.08-8.08-12.11l38.44-30.24-44.91,19.32c-4.92-8.97-8.54-17.46-9.89-24.69l50.37-31.08-53.56,17.72c-.99-2.81-2.18-5.75-3.55-8.77l25.18-18.32-28.11,12.21c-5.35-10.59-12.39-21.96-19.74-32.78l25.97-16.71-31.8,8.3c-.72-1.02-1.44-2.03-2.15-3.02l40.09-20.31-47.63,10.02c-12.62-16.85-22.97-29.01-22.97-29.01,20.84-11.92,96.95-4.39,124.73,67,27.78,71.39,13.79,149.2,13.79,149.2,0,0-18.49-19.73-36.63-43.62l23.56-16.17-33.13,3.07Z"/>
        <g>
          <path class="cls-17" d="m488.82,403.89l44.91-19.32-38.43,30.24c2.54,4.04,5.25,8.09,8.07,12.11l33.13-3.06-23.56,16.17c18.14,23.88,36.63,43.62,36.63,43.62,0,0,8.19-45.57-.42-98.97-8.26-10.6-17.87-21.71-28.21-31.39l-41.99,25.93c1.35,7.22,4.96,15.72,9.88,24.68Z"/>
          <path class="cls-17" d="m469.27,350.95l28.11-12.2-25.18,18.31c1.37,3.03,2.56,5.97,3.54,8.78l43.28-14.32c-20.06-18.29-42.73-30.97-63.72-24.59,5.21,8.08,10.05,16.26,13.97,24.03Z"/>
        </g>
      </g>
      <line class="cls-20" x1="434.01" y1="296.45" x2="481.64" y2="286.43"/>
      <path class="cls-20" d="m560.32,470.83c20.51-25.72,63.94-86.78,72.33-151.94,11.06-85.95-79.83-153.03-79.83-153.03l-8.54,51.57,45.38,22.82"/>
      <polyline class="cls-20" points="472.2 357.06 475.75 365.83 529.31 348.12"/>
      <polyline class="cls-20" points="488.82 403.89 533.73 384.57 512.04 401.63"/>
      <polyline class="cls-20" points="540.54 246.91 538.97 261.47 593.7 288.36"/>
      <path class="cls-20" d="m411.05,267.44s66.63-23.74,117.53,51.69"/>
    </g>
    <polygon class="cls-9" points="606.16 503.75 624.6 503.75 676.78 1056.92 658.33 1056.92 606.16 503.75"/>
    <line class="cls-20" x1="629.49" y1="555.54" x2="676.78" y2="1056.92"/>
    <polygon class="cls-9" points="453.24 503.75 434.79 503.75 382.62 1056.92 401.06 1056.92 453.24 503.75"/>
    <rect class="cls-42" x="399.04" y="679.99" width="265" height="34.21"/>
    <polygon class="cls-4" points="612.48 679.99 446.91 679.99 417.93 459.86 641.47 459.86 612.48 679.99"/>
    <rect class="cls-8" x="522.31" y="503.75" width="18.45" height="553.18"/>
    <polygon points="515.01 679.99 508 714.2 522.31 714.2 522.31 679.99 515.01 679.99"/>
    <polygon points="414.94 714.2 433.37 714.2 429.03 760.34 410.36 762.84 414.94 714.2"/>
    <polygon points="644.45 714.2 646.02 730.96 627.82 733.42 626.02 714.2 644.45 714.2"/>
    <polygon class="cls-3" points="522.31 542.28 502.1 679.99 522.31 679.99 522.31 542.28"/>
    <polyline class="cls-20" points="612.48 679.99 641.47 459.86 417.93 459.86"/>
    <polyline class="cls-20" points="540.76 503.75 540.76 1056.92 522.31 1056.92"/>
    <polyline class="cls-20" points="664.04 679.99 664.04 714.2 542.07 714.2"/>
    <line class="cls-20" x1="453.24" y1="713.26" x2="522.31" y2="714.2"/>
    <line class="cls-20" x1="433.37" y1="714.2" x2="414.21" y2="917.56"/>
    <line class="cls-20" x1="424.56" y1="510.21" x2="443.35" y2="652.92"/>
    <polyline class="cls-20" points="482.35 679.99 399.04 679.99 399.04 714.2"/>
    <polyline class="cls-20" points="392.18 955.51 382.62 1056.92 401.06 1056.92"/>
  </g>
  <g>
    <path class="cls-36" d="m690.18,313.02h12.84c-5.43-13.55-21.86-14.83-21.86-14.83l-29.65,17.83h0l-36.25,10.98,15.55,29.12s9.91,10.14,24.76,10.6l-2.61-7.69s4.27,4.43,10.14,4.4l-.34-10.21,23.09,1.64,1.03-18.31,16.16-2.12c-4.4-21.45-12.84-21.41-12.84-21.41Z"/>
    <path class="cls-36" d="m835.3,1001.49s4.99,17.17,21.78,23.88l24.94-31.66s-29.17-8.67-46.72,7.78Z"/>
    <path class="cls-36" d="m815.68,1031.93s-1.77,9.25,16.7,15.25l16.43-29.92s-25.12-.12-33.13,14.67Z"/>
    <path class="cls-36" d="m519.69,684.11s-14.41-105.45,138.51-133.43l44.82,58.77-116.3,92.72-67.04-18.06Z"/>
    <path class="cls-36" d="m980.97,352.83s132.39-56.18-24.42-255.96l-89.13,83.56,113.55,172.4Z"/>
    <path class="cls-9" d="m1014.84,821.07l-60.83-57.36,9.71,79.98c-106.37,32.03-234.56-9.48-250.71-82.06-18.72-84.24-73.11-292.58-73.11-292.58l381.91,61.19,86.39,82.59s15.49,141.87-93.35,208.24Z"/>
    <path class="cls-36" d="m957.22,790.03l6.51,53.66c-106.37,32.03-234.56-9.48-250.71-82.06-2.38-10.77-5.35-23.58-8.75-37.71,40.95,20.08,91.54,43.79,131.13,58.85,45.9,17.47,86.35,21.4,121.82,7.26Z"/>
    <line class="cls-20" x1="963.72" y1="843.7" x2="948.08" y2="714.42"/>
    <path class="cls-36" d="m1014.84,821.07l-41.34-39c19.78-11.59,37.91-29.59,54.45-54.88,27.84-42.57,29.19-113.43,25.1-167.06l55.15,52.7s15.49,141.87-93.35,208.24Z"/>
    <path d="m1098.86,604.75s-76.27-26.31-104.31,66.96c-27.18,90.42-194.05-97.91-194.05-97.91l205.85-74.89,92.51,105.84Z"/>
    <polygon class="cls-32" points="723.68 636.54 723.68 636.54 363.4 997.21 252.56 1038.85 246.83 1053.92 472.14 1053.92 478.44 1040.46 971.56 680.59 936.92 508.06 723.68 636.54"/>
    <path class="cls-40" d="m1074.83,73.67l-28.23-38.26,9.42-10.58c6.17-6.93,5.79-17.49-.86-23.96h0l-86.61,84.74-239.13,224.19v-.04s-41.25,32.68-51.1-5.65l-42.83,40.08s28.78,14.82,30.81,24.79h0l-19.29,18.08c-37.62,35.27-42.45,93.29-11.18,134.29l87.83,115.18,213.25-128.48-23.85-113.48,131.16-307.27,13.5,1.69,15.24-7.6c2.89-1.44,3.77-5.13,1.86-7.73Z"/>
    <path class="cls-49" d="m538.55,536.56l19.87,124.12c17.23,74.1,119.07,83.19,149.14,13.31l16.11-37.45-103.3-135.46c-.77-1.01-1.56-1.98-2.37-2.92-29.85-34.61-86.68-6.72-79.46,38.4Z"/>
    <path d="m723.68,636.54l-16.12,37.45c-30.08,69.88-131.93,60.79-149.13-13.31l-5.81-36.36c1.16,1.45,32.59,38.5,123.21-50.52l47.85,62.74Z"/>
    <path class="cls-8" d="m723.68,636.54l-16.12,37.45c-.55,1.27-1.12,2.53-1.73,3.78-21.97,45.16-77.8,62.22-122.44,39.2-28.64-14.77-63.7-32.86-63.7-32.86,0,0,109.51-29.77,138.51-133.43l65.48,85.86Z"/>
    <path class="cls-42" d="m704.74,611.68l-6.08-7.96c-9.31,9.77-22.42,15.85-36.95,15.85-1.49,0-2.97-.1-4.46-.23-3.7-9.91-9.87-18.62-17.8-25.33-1.75,2.87-3.57,5.68-5.45,8.39,4.62,4.06,8.49,8.95,11.36,14.43-5.71-1.95-10.96-4.85-15.55-8.55-1.98,2.67-4.03,5.25-6.14,7.76,7.43,6.01,16.28,10.27,26.02,12.25.96,3.93,1.55,7.99,1.55,12.25,0,16.14-7.56,30.53-19.3,39.9l-14.01-19.61c-1.06-1.48-3.12-1.83-4.61-.77-1.48,1.06-1.83,3.12-.77,4.61l13.95,19.53c-7.7,4.66-16.69,7.4-26.32,7.4-5.71,0-11.16-.99-16.25-2.71-.4-11.13-3.8-21.46-9.41-30.31-2.84,1.82-5.68,3.5-8.45,5.12,3.86,6.04,6.47,12.91,7.5,20.34-6.44-3.96-11.95-9.31-16.08-15.65-3.1,1.65-6.08,3.1-8.88,4.46,6.08,9.74,14.86,17.6,25.3,22.62-.46,5.18-1.68,10.17-3.57,14.79,2.94,1.52,5.91,3.07,8.82,4.56,2.08-4.92,3.57-10.2,4.29-15.72,5.32,1.52,10.93,2.41,16.74,2.41,11.78,0,22.75-3.42,32.09-9.23l9.03,12.64c.65.9,1.66,1.38,2.69,1.38.66,0,1.34-.2,1.92-.62,1.48-1.06,1.83-3.12.77-4.61l-8.99-12.58c14.25-11.17,23.46-28.5,23.46-47.95,0-3.83-.4-7.53-1.09-11.13.56,0,1.09.07,1.65.07,16.78,0,31.97-6.8,43.03-17.8Z"/>
    <path class="cls-4" d="m514.84,1033.06s-69.59-27.01-120.07-4.7l-21.38-11.1,6.31-8.32s58.21-43.47,145.1,7.07l-9.96,17.04Z"/>
    <path class="cls-8" d="m654.6,379.96s-30.02,65.37,18.8,141.1c48.82,75.73,69.9,103.65,69.9,103.65l-59.62,117.17s-50.38-177.6-63.76-229.23c-13.39-51.63-3.91-91.37,10.88-105.98,14.79-14.61,23.8-26.72,23.8-26.72Z"/>
    <path class="cls-19" d="m394.75,965.82s89.51,2.62,143.17,84.83l393.01-307.65-207.25-106.47-328.93,329.28Z"/>
    <line class="cls-20" x1="486.39" y1="998.11" x2="791.98" y2="671.63"/>
    <path d="m936.91,508.05l-213.23,128.49-87.84-115.18c-17.04-22.36-2.27-95.41,1.56-121.43,6.6,15.22,36.34,20.86,67.34-9.32,41.9-40.78,18.94-75.44,18.94-75.44l81.3-76.22,118.29,131.63-10.2,24.01,23.84,113.47Z"/>
    <path d="m982.71,230.76l-52.7,123.93c-14.4-1.55-28.56-6.57-41.08-16.12-35.37-26.88-49.43-80.54-54.69-127.04l122.28-114.69h.03s-10.47,80.38,26.15,133.91Z"/>
    <path d="m662.84,376.67s-14.31,76.29,12.64,118.88c21.58,34.11,63.04,109.63,67.83,129.16l-17.17,10.34s-138.99-157.64-63.3-258.39Z"/>
    <path class="cls-38" d="m936.92,508.06l-213.25,128.48c-41.45,24.05-51.12,51.18-26.94,98.66l156.41,253.98-41.48,64.75h33.99l123.21-79.01-10.4-24.55-39.27-198.17,61.82-46.62c20.32-18.61,25.97-48.38,13.88-73.15l-57.97-124.37Z"/>
    <path class="cls-4" d="m909.07,988.37s3.05-43.66,47.06-49.79l2.34,11.78s-14.76-6.76-29.17,40.52l-20.23-2.52Z"/>
    <path class="cls-2" d="m743.3,624.72l-23.12,45.47c-20.94-30.22-51.09-74.4-78.76-117.3-20.51-31.83-27.11-61.82-27.87-85.92-.03-.83-.03-1.62-.03-2.41.1-27.67,7.66-59.3,18.59-67.57,18.5-13.99,34.2-28.01,34.2-28.01,0,0-40.9,77.68,7.08,152.08,48.84,75.72,69.91,103.66,69.91,103.66Z"/>
    <path class="cls-19" d="m981.03,705.56l-61.83,46.63,39.27,198.16c-51.48-6.97-158.62,39.92-158.62,39.92l-106.64-253.64c-24.17-47.45-10.98-76.06,30.47-100.1l213.23-128.49,68.3,70c32.94,66.49-3.87,108.92-24.18,127.51Z"/>
    <path class="cls-2" d="m981.04,705.56l-50.16,37.81c0-.1.03-.23.07-.36,34.18-147.21-84.87-178.82-86.49-179.25l92.46-55.71,68.29,70.01c32.92,66.47-3.86,108.91-24.17,127.5Z"/>
    <path class="cls-8" d="m714.08,324.2s15.49,159.77,85.78,193.8c70.29,34.04,207.72,3.07,308.34,94.85l-195.13-218.27,67.9-41.74s-49.66-114.78-24.42-255.96l-242.47,227.33Z"/>
    <path class="cls-42" d="m937.49,346.74c-.13-1.35-.2-2.74-.2-4.13,0-9.08,2.87-18.29,7.86-26.81.73.03,1.42.07,2.15.07,7.03,0,13.8-1.29,20.14-3.67-.83-3.07-1.68-6.31-2.54-9.68-3.96,1.62-8.12,2.64-12.42,3.14,3.17-3.7,6.74-7.13,10.67-10.24-.79-3.37-1.59-6.87-2.34-10.47-8.09,5.71-15.06,12.71-20.51,20.44-20.27-3.05-37.19-19.07-44.77-40.86l22.92-16.16c1.49-1.05,1.85-3.11.8-4.6-1.05-1.49-3.11-1.85-4.6-.8l-21.12,14.89c-1.48-6-2.3-12.34-2.3-18.91,0-27.44,13.9-51.05,33.72-61.42,7.23,4.92,15.55,8.52,24.57,10.37-.1-3.34-.13-6.74-.1-10.17-4.43-1.06-8.62-2.61-12.55-4.59,3.37-.76,6.87-1.19,10.44-1.19.73,0,1.45.03,2.18.1.03-3.27.1-6.6.23-9.94-.79-.03-1.58-.07-2.41-.07-7.4,0-14.5,1.45-21.13,4.06-7.99-6.6-13.94-15.29-16.71-25.1l-7.96,7.46c3.24,8.49,8.45,16.12,15.09,22.42-20.94,12.91-35.27,38.57-35.27,68.06,0,8.74,1.3,17.13,3.62,24.97l-51.56,36.36c-1.49,1.05-1.85,3.11-.8,4.6.65.91,1.66,1.4,2.7,1.4.66,0,1.32-.2,1.9-.6l49.96-35.24c8.69,22.45,26.33,39.23,47.6,44.03-5.48,10.6-8.22,22.06-7.13,33.22v.03c1.12,11.52,6.14,21.66,14.3,29.13l8.88-5.48c-7.73-5.98-12.32-14.46-13.31-24.63Z"/>
    <path class="cls-20" d="m958.47,950.36c-51.48-6.97-158.62,39.92-158.62,39.92l-106.64-253.64c-24.17-47.45-10.98-76.06,30.47-100.1l90.4-54.48"/>
    <path class="cls-42" d="m868.84,421.77s38.8-18.11,95.39,30.03l-51.16-57.23-44.23,27.2Z"/>
    <polyline class="cls-20" points="905.3 730.54 919.2 752.19 887.62 749.74"/>
    <path class="cls-2" d="m1108.2,612.83c-100.62-91.77-238.06-60.79-308.33-94.84-70.31-34.05-85.79-193.81-85.79-193.81l35.67-33.42s15.85,173.81,92.7,189.49c49.53,10.11,116.39,15.55,178.54,35.03l87.21,97.55Z"/>
    <g>
      <path class="cls-19" d="m651.51,462.12c-.51-3.69-.88-7.34-1.11-10.92l-36.49,22.18c.26,3.52.65,7.15,1.18,10.87l36.42-22.13Z"/>
      <path class="cls-19" d="m658.94,492.11l-42.8-1.44c.61,3.26,1.34,6.6,2.2,9.99l44.75,1.5c-1.53-3.36-2.92-6.71-4.15-10.05Z"/>
      <path class="cls-19" d="m624.01,408.47l27.37,12.32c.44-3.52.97-6.91,1.57-10.16l-23.78-10.7c-1.85,2.23-3.58,5.12-5.17,8.54Z"/>
      <path class="cls-19" d="m683.05,535.97c-1.79-2.75-3.62-5.57-5.5-8.47l-32.27,31.36c1.83,2.82,3.67,5.64,5.51,8.46l32.26-31.35Z"/>
      <path class="cls-19" d="m733.68,611.35c-1.67-2.38-3.58-5.1-5.71-8.18l-33.4,29.71c1.91,2.8,3.78,5.55,5.63,8.25l33.49-29.78Z"/>
      <path class="cls-19" d="m712.72,580.84l-49.23,5.78c2.05,3.1,4.1,6.18,6.15,9.25l49.34-5.79c-1.96-2.88-4.05-5.96-6.26-9.24Z"/>
    </g>
    <g>
      <path class="cls-19" d="m785.3,426.25c-1.78-3.54-3.48-7.18-5.1-10.88l-28.48,48.52c1.76,3.48,3.59,6.88,5.51,10.19l28.07-47.83Z"/>
      <path class="cls-19" d="m806.24,457.92l-47.51,18.71c1.76,2.92,3.58,5.75,5.47,8.49l49.73-19.58c-2.67-2.33-5.23-4.88-7.7-7.62Z"/>
      <path class="cls-19" d="m720.86,367.69l29.95-67.57c-.75-5.93-1.06-9.35-1.06-9.35l-9.62,9.01-22.42,50.58c.87,5.22,1.91,11.06,3.15,17.33Z"/>
      <path class="cls-19" d="m768.53,383.73l-41.19,12.56c.81,3.15,1.67,6.35,2.57,9.57l41.69-12.71c-1.07-3.13-2.1-6.28-3.08-9.42Z"/>
      <path class="cls-19" d="m825.51,527.12l9.64-48.88c-3.2-1.12-6.29-2.54-9.27-4.2l-9.92,50.3c3.09,1,6.28,1.92,9.55,2.78Z"/>
      <path class="cls-19" d="m959.14,500.01l-15.64,43.88c3.31.48,6.64.98,9.97,1.52l15.47-43.41c-3.27-.68-6.54-1.35-9.81-1.99Z"/>
      <path class="cls-19" d="m1033.33,566.42c3.11,1.25,6.22,2.56,9.31,3.93l5.09-25.15-8.24-9.21-6.17,30.43Z"/>
      <path class="cls-19" d="m991.27,507.06c-3.88-.96-7.77-1.87-11.66-2.75l19.4,50.71c3.98,1.08,7.96,2.24,11.94,3.47l-19.68-51.44Z"/>
      <path class="cls-19" d="m889.29,488.31l-50.17,41.94c4.14.83,8.39,1.58,12.73,2.28l50.47-42.19c-4.4-.68-8.74-1.36-13.03-2.02Z"/>
      <path class="cls-19" d="m926.38,494.16c-3.39-.56-6.75-1.1-10.09-1.63l4.38,48.39c3.33.4,6.69.81,10.06,1.24l-4.35-48Z"/>
    </g>
    <path class="cls-20" d="m774.47,267.56s-12.63,35.46,5.48,65.14"/>
    <line class="cls-20" x1="714.07" y1="324.18" x2="956.55" y2="96.87"/>
    <line class="cls-20" x1="621.69" y1="519.39" x2="666.31" y2="680.39"/>
    <path class="cls-20" d="m641.44,590.63c-39.93,71.22-121.74,93.48-121.74,93.48l63.7,32.86"/>
    <polyline class="cls-20" points="890.93 423.55 913.07 394.57 1047.51 544.96"/>
    <path class="cls-20" d="m763.67,366.72s20.73,103.74,78.77,113.53c58.04,9.79,111.02,18.66,111.02,18.66"/>
    <line class="cls-20" x1="657.3" y1="577.25" x2="690.18" y2="626.43"/>
    <path d="m690.43,321.11v.03s-22.46,20.97-24.11,47.85c-2.05-9.97-30.81-24.8-30.81-24.8l42.83-40.09c2.44,9.54,6.87,14.69,12.09,17.01Z"/>
    <circle class="cls-33" cx="648.5" cy="298.21" r="47.78" transform="translate(203.74 856.48) rotate(-76.15)"/>
    <line class="cls-20" x1="919.2" y1="752.19" x2="945.74" y2="886.11"/>
    <path class="cls-20" d="m887.62,537.2s71.18,32.27,42.91,57.82c-17.83,16.11-49.9,38.09-74.61,54.83-21.21,14.37-45.58,23.35-71.04,26.19l-1.4.16s20.9,14.85,55.64,19.65c0,0-34,9.5-47.14,7.15,0,0,5.01,11.48,34.14,11.42h0c-10.66,10.45-14.37,26.1-9.52,40.23l70.26,204.96"/>
    <path class="cls-20" d="m1108.2,612.83c-100.62-91.77-238.06-60.79-308.33-94.84-70.31-34.05-85.79-193.81-85.79-193.81"/>
    <path class="cls-20" d="m613.52,464.56c.1-27.67,7.66-59.3,18.59-67.57,18.5-13.99,34.2-28.01,34.2-28.01"/>
    <line class="cls-20" x1="363.4" y1="997.21" x2="657.3" y2="703"/>
    <line class="cls-20" x1="551.46" y1="617.18" x2="538.55" y2="536.56"/>
    <path class="cls-20" d="m519.69,668.71s6.31-46.75,29.49-65.73"/>
    <path class="cls-20" d="m993.04,768.03s66.65-48.18,61.52-150.85"/>
    <path class="cls-20" d="m987.98,795.75l26.86,25.33s66.96-29.3,88.17-130.47"/>
    <path class="cls-20" d="m1005.21,578.05s39.21,65.07-12.17,115.21"/>
    <line class="cls-20" x1="537.92" y1="1050.66" x2="754.09" y2="881.44"/>
    <path d="m693.22,736.64s45.4,124.38,17.64,178.64l43.24-33.85-60.88-144.79Z"/>
    <path class="cls-20" d="m394.75,965.82s60.7,3.59,109.3,45.85"/>
    <polygon points="301.07 1013.43 324.11 1040.46 358.57 1040.46 327.08 1000.87 362.23 986.43 404.15 1040.46 486.39 1040.46 486.39 1053.92 243.65 1053.92 243.65 1040.46 288.96 1040.46 276.55 1022.7 301.07 1013.43"/>
    <path d="m815.68,1031.93s20.73-19.3,53.16,7.12l-4.89,3.14c-5.08,3.26-11,4.99-17.04,4.99h-38.24v6.73h64.33l108.73-69.53-6.39-13.45-39.48,25.15s-35.06-33.96-87.55-14.75l-13.02,20.17s41.12-20.29,75.4,10.72l-18.86,12.09s-35.67-24.79-65.73-9.89l-10.44,17.52Z"/>
    <line class="cls-20" x1="362.23" y1="986.43" x2="404.15" y2="1040.46"/>
    <polyline class="cls-20" points="358.57 1040.46 327.08 1000.87 338.74 996.08"/>
    <line class="cls-20" x1="243.65" y1="1053.92" x2="486.39" y2="1053.92"/>
    <path class="cls-20" d="m826.12,1014.42s27.97-15.14,65.73,9.89"/>
    <path class="cls-20" d="m848.32,981.33s45.22-21.7,87.55,14.75"/>
    <polyline class="cls-20" points="324.11 1040.46 301.07 1013.43 288.96 1018.01"/>
    <line class="cls-20" x1="243.65" y1="1040.46" x2="288.96" y2="1040.46"/>
    <path class="cls-20" d="m429.28,1020.04s37.57-4.12,85.56,13.02"/>
    <polyline class="cls-20" points="975.34 970.93 981.73 984.38 873 1053.92 808.67 1053.92"/>
    <path class="cls-20" d="m943.11,959.61s-8.99,15.17-13.81,31.28"/>
    <path class="cls-20" d="m868.84,1039.06l-4.89,3.14s-7.88,4.99-17.04,4.99h-13.25"/>
    <path class="cls-20" d="m629.25,547.41s-32.01,17.31-45.05,13.51c-13.04-3.8-10.87-20.45-10.87-20.45"/>
    <path class="cls-20" d="m561.61,527.5s5.54,24.79,20.1,6.36"/>
    <path class="cls-20" d="m597.96,532.52s4.31,10.9,2.73,26.87"/>
    <path class="cls-20" d="m613.51,527.5s5.14,8.62,5.93,24.73"/>
    <path d="m594.16,560.92c16.02-2.22,31.12-2.25,41.36,9.26l-6.26-22.77c-16.16,8.16-27.51,12.38-35.1,13.51Z"/>
    <path class="cls-20" d="m953.58,242.94s5.1,51.05,27.39,109.89l-118.87,73.08"/>
    <path d="m666.31,256.76s-1.19,16.51-16.08,33.3l-7.74-11.92s-.51,36.05-7.34,41.43c-10.1,13.76-5.91,20.15,2.57,40.11,0,0-8.42,5.78-25.06-13.03l-4.64,10.19s-17.62-4.3-20.12-26.57l-10.65,7.08s-14.8-40.26-1.74-51.46c0,0-1.27-28.47,13.11-46.32l2.99,4.57s15.91-21.82,34.23-24.58v5.68s39.16-11.26,56.6,1.41l-5.62,6.47s38.5,8.75,13.62,42.17c0,0-8.39-14.29-24.12-18.53Z"/>
    <line class="cls-20" x1="1056.03" y1="24.83" x2="1033.19" y2="48.59"/>
    <line class="cls-20" x1="1055.17" y1="47.02" x2="1024.03" y2="77.16"/>
    <path class="cls-20" d="m1057.73,89s-27.84.2-38.14-17.51"/>
    <line class="cls-20" x1="1063.38" y1="58.16" x2="1036.88" y2="85.08"/>
    <path class="cls-20" d="m1018.36,42.32l25.39,10.88-2.9,3.22c-3.72,4.12-8.93,6.59-14.47,6.84l-17.75.82"/>
    <line class="cls-20" x1="1048.37" y1="87.82" x2="1071.73" y2="69.47"/>
    <line class="cls-20" x1="1028.93" y1="123.16" x2="990.18" y2="213.94"/>
    <path class="cls-20" d="m1007.88,174.86s40.6,68.4,19.55,125.28"/>
    <path class="cls-20" d="m650.23,290.06c12.26-10.44,16.08-33.3,16.08-33.3,0,0,22,5.74,28.36,29.13"/>
    <path class="cls-20" d="m642.49,278.14s-.22,31.09-5.35,38.7"/>
    <path class="cls-20" d="m625.83,219.56s-16.76.59-34.23,24.58"/>
    <path class="cls-20" d="m651.87,238.95s14-8.68,24.94-5.84c10.94,2.85,23.75,10.32,21.99,23.65"/>
    <path class="cls-20" d="m587.9,330.27l-10.65,7.08c-15.49-43.27-1.74-51.46-1.74-51.46"/>
    <path class="cls-20" d="m608.02,356.83s-29.98-8.41-16.42-41.77"/>
    <path class="cls-20" d="m608.02,329.23s2.43,33.4,29.7,30.45"/>
    <path class="cls-20" d="m594.16,265.07s6.49-14.63,21.98-22.12l.33,11.06"/>
    <path class="cls-20" d="m625.83,225.24s34.96-11.73,56.6,1.41"/>
    <path class="cls-20" d="m594.16,290.04s-2.13,13.66,11.16,14.07l2.71-6.62"/>
  </g>
  <g>
    <g>
      <path class="cls-55" d="m416.29,252.31l94.61,344.06s1.09,97.44-109.66,53.98l15.05-398.04Z"/>
      <path class="cls-20" d="m425.58,581.83s6.08-17.14,28.74-16.59"/>
      <path class="cls-20" d="m428.79,633.9s12.38,8.66,29.64,1.79"/>
      <path class="cls-20" d="m429.88,651.49s14.01,6.38,25.64,0"/>
      <line class="cls-20" x1="454.52" y1="596.23" x2="426.96" y2="604.24"/>
      <path d="m459.32,399.28s-18.53,20.52-49.31,29.3l6.99-176.28,42.31,146.97Z"/>
      <path class="cls-9" d="m438.44,273.17l56.77,102.98s-57.53,50.73-102.52,27.05l-22.44-204.45,2.37,1.64c27.28,18.84,49.81,43.75,65.81,72.79Z"/>
      <path class="cls-36" d="m495.2,376.16s-57.53,50.72-102.52,27.03l.51-16.19c42.94-3.01,70.07-19.92,87.05-37.98l14.96,27.15Z"/>
      <path class="cls-20" d="m461.94,315.81l33.25,60.34s-16.97,15.29-35.87,23.12"/>
      <line class="cls-20" x1="437.78" y1="601.1" x2="455.63" y2="604.4"/>
      <path d="m487.35,524.75s-38.6-.64-63.72,25.41l1.95,31.67s18.77-35.45,58.84-29.78l2.93-27.3Z"/>
      <rect class="cls-8" x="480.19" y="513.43" width="22.34" height="44.69" transform="translate(-128.96 156.71) rotate(-16.05)"/>
      <polyline class="cls-20" points="474.45 517.38 486.81 560.33 508.28 554.16"/>
      <line class="cls-20" x1="483.76" y1="514.71" x2="495.93" y2="511.21"/>
    </g>
    <path class="cls-9" d="m394.35,153.35l-9.16,30.06-3.39-6.47s-7.31,19.16-18.46,20.62l-6.59-9.58s-9.31,19.07-22.24,29.61l-10.03-31.09h-5.39s-5.99-13.15,0-27.2l-6.55,2.64,6.55-31.08,75.24,22.49Z"/>
    <polyline class="cls-20" points="319.11 159.29 312.55 161.93 319.11 130.86"/>
    <path class="cls-20" d="m385.19,183.4l-3.39-6.47s-6.96,18.46-18.46,20.62"/>
    <circle class="cls-44" cx="406.62" cy="139.99" r="15.41"/>
    <path class="cls-13" d="m303.69,115.44c0,8.51,6.9,15.41,15.41,15.41s15.41-6.9,15.41-15.41-6.9-15.41-15.41-15.41-15.41,6.9-15.41,15.41Z"/>
    <path class="cls-47" d="m247.51,213.92L63.23,348.54c-40.13,29.32-30.37,91.73,16.8,107.39l61.62,20.45h0c-6.03,5.72-6.9,15.03-2.02,21.77l.66.91c-8.36,3.69-10.89,14.34-5.09,21.39l3.54,4.3s53.04,14.41,70.55-30.54l38.22-280.29Z"/>
    <path d="m142.82,327.76s26.39,54.49,94.77,55.09c68.37.61,14.53-141.86,14.53-141.86l-109.29,86.77Z"/>
    <path class="cls-9" d="m270.39,193.52l-138.44,89.85s-17.91,65.66,93.65,83.75l44.79-173.6Z"/>
    <line class="cls-20" x1="108.75" y1="465.46" x2="155.62" y2="481.56"/>
    <line class="cls-20" x1="140.28" y1="499.06" x2="148.63" y2="495.25"/>
    <path class="cls-36" d="m232.75,339.49l-7.13,27.64c-111.58-18.1-93.65-83.78-93.65-83.78l18.29-11.89c-1.16,20.61,8.16,36.88,30.68,54.12,18.43,14.11,37.71,12.19,51.81,13.9Z"/>
    <path d="m63.73,983s34.8,34.03,188.86,41.04l17.71-170.45H96.12l-32.39,129.42Z"/>
    <path d="m456.45,983s-68.89,57.35-202.83,37.84l26.08-171.39h142.03l34.72,133.55Z"/>
    <polygon class="cls-48" points="199.69 414.91 86.33 1008.83 7.8 1039.25 252.11 1039.25 319.01 414.91 199.69 414.91"/>
    <polygon class="cls-31" points="432.1 414.91 416.56 1008.83 509.06 1039.25 252.11 1039.25 319.01 414.91 432.1 414.91"/>
    <path class="cls-17" d="m253.63,1025.09s-17.66.11-27.97-5.68c-13.36-7.51-28.76-10.57-44.08-10.57h-95.25l-78.53,30.42h244.31l1.52-14.16Z"/>
    <path class="cls-17" d="m253.63,1025.09s25.34.03,38.66-7.04c13.37-7.09,28.33-10.6,43.47-10.6h0l80.8,1.38,92.5,30.42H252.11l1.52-14.16Z"/>
    <path class="cls-2" d="m432.1,414.91l24.34,568.08s-134.72-87.27-196.71-14.8l59.28-553.28h113.1Z"/>
    <path class="cls-2" d="m199.69,414.91h119.32l-59.28,553.28s-139.96-27.07-196,14.81L199.69,414.91Z"/>
    <path class="cls-3" d="m255.74,1007.93c62.58-70.07,200.71-24.93,200.71-24.93l-8.99-209.56c-7.6-1.55-30.96,17.13-38.24,11.19-23.72-19.35,53.37-65.86-9.27-112.14,0,0,10.83,60.7-19.35,57.23-30.22-3.47-20.41-77.87,4.59-92.66,0,0-66.11-3.5-56.86,64.92,9.25,68.42,3.5,91.9-45.6,51.68l-5.68,56.44-21.3,197.84Z"/>
    <path class="cls-3" d="m63.73,983c59.02-48.18,190.82,34.71,190.82,34.71.53-.63,22.5-207.61,22.5-207.61-.1-.23-.2-.46-.3-.66-17.37-40.32-46.77-13.5-53.24-58.11-7.57-52.17,13.46-64.56,13.46-64.56,0,0-28.93,6.86-42.73,29.48-17.49,28.66-.8,68.95-19.36,80.08-18.56,11.13-40.16-11.13-19.58-46.23,20.54-35.07-1.52-52.51-1.52-52.51,5.32,20.47-14.84,47.61-34.06,51.51l-55.98,233.9Z"/>
    <path class="cls-4" d="m262.85,196.94h0c-20.84,14.33-34.91,36.56-38.93,61.53l-24.23,156.44h232.41c10.15-9.75,9.59-26.15-1.2-35.18l-5.25-4.4-19.09-117.04c-10.92-66.95-87.8-99.77-143.71-61.35Z"/>
    <path class="cls-20" d="m333.77,434.58s-1.88,45.35-21.26,40.95"/>
    <path class="cls-20" d="m410.09,414.91s-3.24,82.51,25.17,82.51"/>
    <path class="cls-20" d="m223.47,414.91s3.43,78.52-41.73,74.99"/>
    <path class="cls-20" d="m199.69,414.91h232.41s18.08-23.23-6.45-39.58l-15.93-97.64"/>
    <line class="cls-20" x1="219.88" y1="284.54" x2="199.69" y2="414.91"/>
    <path class="cls-19" d="m63.71,982.99c59.04-48.18,190.84,34.71,190.84,34.71.4-.46,12.91-117.49,19.09-175.61,0,0-15.32,59.31-39.73,52.04-24.07-7.17,10.17-71.2,11.16-73.08-1.65.59-56.63,21.23-52.57,65.45,4.13,44.91-31.6,59.08-44.42,41.58-12.85-17.47,25.2-44.45,12.61-63.11-12.58-18.69-27.38-23.08-27.38-23.08,0,0,9.21,45.31-14.73,55.51-23.91,10.24-22.55-49.4-22.55-49.4l-32.33,135Z"/>
    <line class="cls-20" x1="418.41" y1="330.96" x2="425.65" y2="297.75"/>
    <line class="cls-20" x1="211.96" y1="335.66" x2="205.5" y2="309.6"/>
    <path class="cls-24" d="m385.2,166.08s-18.32,12.67-14.94,32.67c0,0-16.29,12.71-32.27,8.38-18.46-5-23.46-26.55-23.46-26.55,0,0,16.08-18.89,6.12-40.59l64.55,26.09Z"/>
    <path class="cls-20" d="m314.52,180.58s14.68-16.6,6.12-40.59"/>
    <path class="cls-20" d="m292.61,183.4s-34.87,5.08-58.63,45.62"/>
    <path class="cls-20" d="m133.51,309.97s-3.23-8.66-1.54-26.62l49.86-32.35"/>
    <path class="cls-19" d="m255.74,1007.92c62.58-70.07,200.71-24.93,200.71-24.93l-5.18-120.76c-5.32-10.57-12.58-19.62-22.42-24.24,0,0,13.44,16.97-.49,36.89-13.94,19.91-53.79-4.95-38.67-44.48,0,0-28.33,20.84-25.39,56.11,2.97,35.27-35.76,48.18-45.27,37.88-9.54-10.34-3.3-47.82-3.3-47.82,0,0-19.85,4.26-20.74,25.2-.86,20.24-15.88,40.16-30.45,24.44l-8.78,81.73Z"/>
    <line class="cls-20" x1="202.83" y1="394.63" x2="156.65" y2="385.62"/>
    <line class="cls-20" x1="167.52" y1="375.33" x2="180.95" y2="390.36"/>
    <line class="cls-20" x1="433.91" y1="462.01" x2="443.09" y2="701.97"/>
    <path d="m328.32,143.11c3.83,9.18,8.52,18.36,13.74,24.3,13.94,15.88,30.94,13.18,30.94,13.18,0,0,0-.03.03-.03,4.49-9.15,12.15-14.46,12.15-14.46l-56.86-22.98Z"/>
    <path d="m255.74,1007.92c.43-.46.86-.92,1.32-1.39,6.9-7.5,14.73-13.64,23.18-18.59-14.93-35.86-10.34-99.89-10.07-114.03l-14.43,134.01Z"/>
    <circle class="cls-45" cx="362.31" cy="124.13" r="47.79" transform="translate(-15.46 61.18) rotate(-9.45)"/>
    <line class="cls-20" x1="190.34" y1="452.4" x2="106.54" y2="804.12"/>
    <g>
      <path d="m383.61,281.33c0,2.54-.96,4.89-2.58,6.64,1.85,2.08,4.56,3.4,7.56,3.4,5.55,0,10.04-4.49,10.04-10.04s-4.49-10.07-10.04-10.07c-3.01,0-5.71,1.32-7.56,3.4,1.62,1.78,2.58,4.13,2.58,6.67Z"/>
      <path d="m363.5,274.09c0,5.55,4.49,10.04,10.04,10.04,3.01,0,5.68-1.32,7.5-3.4-1.55-1.75-2.51-4.09-2.51-6.64s.96-4.89,2.51-6.67c-1.82-2.08-4.49-3.4-7.5-3.4-5.55,0-10.04,4.52-10.04,10.07Z"/>
    </g>
    <path d="m309.07,507.63l-5.35,49.92c10.33-43.54,41.63-58.46,41.63-58.46,0,0-20.91,6.41-36.28,8.53Z"/>
    <line class="cls-20" x1="252.11" y1="1039.25" x2="309.07" y2="507.63"/>
    <path class="cls-20" d="m349.71,497.42s-41.14,17.75-77.45,6.45"/>
    <path d="m432.92,430.81s-40.4-8.12-224.18-15.9h223.37l.81,15.9Z"/>
    <path class="cls-20" d="m284.42,330.96s133.94,40.64,77.89,37.24c-56.05-3.4-70.25-6.03-70.25-6.03"/>
    <path class="cls-20" d="m337.99,207.13c18.8,4.06,32.27-8.38,32.27-8.38,0,0,34.96,22.99,59.1,59.44"/>
    <line class="cls-20" x1="448.42" y1="795.82" x2="456.45" y2="983"/>
    <path d="m404.58,115.44l-1.45,15.41s4.72,7.51,1.45,15.55c0,0,13.8-15.73,3.49-44.5l-3.49,13.54Z"/>
    <path d="m334.52,85.25l-9.66,24.05s-9.11-.73-10.34,14.82c0,0-2.16-31.98,20-38.87Z"/>
    <path class="cls-8" d="m337.34,69l-6.67-3.68c22.8-6.04,45.9,1.43,45.9,1.43l-4.25-11.46s30.09,13.53,37.75,36.28l10.87,3c1.91,10.68-3.61,17.6-16.36,20.87,0,0-12.56-.81-21.58-15.41l-2.9,7.71s-18.81-6.57-23.35-18.45v8.05s-26.41,8.73-32.27-9.63c0,0,1.97-11.65,12.84-18.71Z"/>
    <path class="cls-20" d="m417.5,136.36s-7.51-4.64-9.98,15.13"/>
    <line class="cls-20" x1="410.09" y1="140.85" x2="412.51" y2="145.39"/>
    <path class="cls-20" d="m309.63,106.1s7.81.24,0,15.62"/>
    <line class="cls-20" x1="307.43" y1="115.44" x2="312.55" y2="110.74"/>
    <line class="cls-20" x1="316.9" y1="434.58" x2="310.76" y2="491.86"/>
    <rect x="251.81" y="1039.25" width="257.25" height="18.68" transform="translate(760.86 2097.17) rotate(180)"/>
    <rect x="9.07" y="1039.25" width="242.73" height="18.68" transform="translate(260.88 2097.17) rotate(180)"/>
    <path d="m339.95,1033.92c25.7,0,42.79-15.18,43.04-15.4,1.35-1.23,1.44-3.31.22-4.66-1.22-1.35-3.31-1.45-4.66-.23-1.34,1.21-33.37,29.38-75.89,1.68-1.53-.99-3.57-.56-4.57.96-.99,1.53-.56,3.57.96,4.57,14.95,9.74,28.87,13.07,40.9,13.07Z"/>
    <path d="m173.01,1031.53c22.08,0,41.02-10.07,42.24-10.73,1.6-.87,2.2-2.87,1.33-4.48-.87-1.6-2.87-2.2-4.48-1.33-.43.24-43.53,23.07-72.9-1.88-1.39-1.18-3.47-1.01-4.66.38-1.18,1.39-1.01,3.47.38,4.65,11.92,10.12,25.51,13.39,38.08,13.39Z"/>
    <path d="m335.76,1007.45l74.81,17.64c17.81-5.85,22.67-9.02,55.43,0l-49.43-16.26s-10.68-20.63-39.57-20.63-41.23,19.25-41.23,19.25Z"/>
    <path d="m181.58,1008.83l-75.66,14.56s-18.2-10.64-36.14-8.14l16.55-6.41s5.19-25.17,46.18-25.17,49.07,25.17,49.07,25.17Z"/>
    <line class="cls-20" x1="509.06" y1="1039.25" x2="416.56" y2="1008.83"/>
    <line class="cls-20" x1="86.33" y1="1008.83" x2="48.76" y2="1023.38"/>
    <path class="cls-20" d="m380.11,107.74s-29.23-8.62-23.35-29.28"/>
    <path class="cls-20" d="m356.76,97.34s-13.19,4.49-20.08,1.34"/>
    <line class="cls-20" x1="376.57" y1="66.75" x2="372.32" y2="55.29"/>
    <path class="cls-20" d="m398.64,73.81c7.18,6.5,11.44,17.76,11.44,17.76l-8.84-6.32,3.12,6.32"/>
    <path class="cls-20" d="m324.49,87.71s3.49-21.45,20.19-19.34"/>
    <path class="cls-20" d="m420.94,94.57s4.79,16.66-16.36,20.87c0,0-27.49-4.66-23.03-30.19"/>
    <line class="cls-20" x1="330.66" y1="65.32" x2="337.34" y2="69"/>
    <path class="cls-20" d="m254.55,1017.71s-67.07-41.01-124.11-48.53"/>
    <path class="cls-20" d="m396.78,970.71s-77.07-11.02-121.11,20.09"/>
    <g>
      <path class="cls-22" d="m397.19,1021.93c7.17-3.66,20.88-5.7,39.03-6.64l-68.05-.2,48.39-6.26s-19.73-12.91-80.8-1.38"/>
      <path class="cls-22" d="m181.58,1008.83s-71-22.69-95.25,0c25.08-5.23,51.35-2.6,78,2.63l-85.95.45c14.57.1,27.77,3.46,40.01,9.08"/>
      <path class="cls-22" d="m389.67,1002.66s68.7-26.92,49.97-37.74c-18.74-10.83-49.97,37.74-49.97,37.74Z"/>
      <path class="cls-22" d="m389.67,1002.66s-13.5-31.1-43.54-31.86c-30.04-.76,43.54,31.86,43.54,31.86Z"/>
      <path class="cls-22" d="m132.3,998.74s52.56-8.51,45.19-25.35c-7.38-16.84-45.19,25.35-45.19,25.35Z"/>
      <path class="cls-22" d="m132.3,998.74s-6.42-26.21-19.09-27.96c-12.66-1.75,19.09,27.96,19.09,27.96Z"/>
    </g>
    <line class="cls-20" x1="88.95" y1="882.22" x2="63.71" y2="982.99"/>
    <path class="cls-20" d="m315.79,1009.55s-13.44,3.1-23.5,8.5c-10.05,5.4-31.15,6.84-31.15,6.84"/>
    <path class="cls-20" d="m242.46,1024.28s-11.62-1.01-16.8-4.88c-5.18-3.87-24.19-10.44-35.52-10.24"/>
    <line class="cls-20" x1="131.64" y1="298.56" x2="66.3" y2="346.3"/>
  </g>
  <g>
    <path class="cls-35" d="m351.81,816.34l-9.79-49.63s14.59-5.99,18.96,2.31c4.37,8.3,55.82,82.78,55.82,82.78l-64.99-35.46Z"/>
    <path class="cls-9" d="m257.41,932.75s39.28-81.39,159.62-31.99v55.68s-137.84,51.3-159.62-23.69Z"/>
    <path d="m434.94,936.34s-18.99-9.41-18.99-30.28c0,0-10.39-3.94-9.36-18.66,1.02-14.72,43.21-77.41,43.21-77.41,0,0,20.77-32.17,75.12-10.7,63.25,24.99,21.38,96.26,21.38,96.26l-111.36,40.79Z"/>
    <path class="cls-9" d="m856.67,353.44s62.18-85.6,168.51,18.79l-10.65,135.23-185.84-25.42,27.98-128.6Z"/>
    <path class="cls-9" d="m1059.69,975.45s-7.17,81.47-179.48,81.47v-118.65l159.71-16.93,19.77,54.11Z"/>
    <path class="cls-23" d="m349.1,788.53l67.7,63.26.56,118.78,53.21-69c44.84,0,120.6-20.79,134.25,21.92l42.64,133.43h-282.65c-50.42,0-84.72-51.15-65.58-97.8l44.33-108.15s-1.88-42.53-24.4-63.37h0c8.79-7.25,21.6-6.86,29.93.92Z"/>
    <path d="m319.04,910.85s.21,24.59,97.99,27.42v18.17h-116.7l18.71-45.58Z"/>
    <path d="m417.36,970.58l-.33-69.82s-48.84,56.3-159.62,31.99c0,0-2.51,124.18,107.4,124.18s282.63,0,282.63,0l-180.13-183.61-49.95,97.27Z"/>
    <polygon points="512.37 814.14 1012.5 536.86 1002.73 660.7 750.89 830.32 512.37 814.14"/>
    <path class="cls-4" d="m509.23,812.57h0c18.91-12.86,42.03-18,64.6-14.37l185.94.53,166.28-523.49-66.07-77.18,8.89-14.62,166.42,60.78-52.07,660.33c-6.78,86.03-78.57,152.38-164.87,152.38h-150.11c-63.24,0-138.75-52.1-185.09-104.37-35.84-40.43-18.59-109.59,26.08-139.98Z"/>
    <path class="cls-15" d="m1025.19,372.23s-74.72,66.48-134.72,15.09l-30.47,95.94,154.55,24.2,10.65-135.23Z"/>
    <path class="cls-19" d="m1025.19,372.23v.13l-41.97,532.19c-6.77,86.02-78.56,152.37-164.85,152.37h-41.74c-13.67-62.02-18.53-150.38-16.84-258.17l96.89-445.31s23.53,165.32,168.51,18.79Z"/>
    <path class="cls-4" d="m811.23,1056.92h-142.99c-63.24,0-138.76-52.11-185.09-104.35-35.83-40.45-18.59-109.6,26.09-139.98,18.89-12.88,42-18.03,64.59-14.36l185.95.53c46.07,54.49,55.07,149.44,51.45,258.17Z"/>
    <polygon class="cls-27" points="880.22 1056.92 852.09 975.45 995.34 799.29 1032.35 998.08 1112.96 1043.46 1112.96 1056.92 880.22 1056.92"/>
    <path class="cls-2" d="m993.85,769.75l-10.63,134.8c-6.77,86.02-78.56,152.37-164.85,152.37h-41.74c-13.67-62.02-18.53-150.38-16.84-258.17l45.17-207.61s-29.1,213.09,188.89,178.62Z"/>
    <polygon points="1029.58 1020.27 992.45 1001.39 982.52 936.55 1022.52 936.55 1032.35 998.08 1071.77 1020.27 1029.58 1020.27"/>
    <polyline class="cls-22" points="1071.77 1020.27 1029.58 1020.27 992.45 1001.39 982.52 936.55"/>
    <path class="cls-22" d="m1023.65,1017.25l36.05-3.78-48.29-2.45s21.98-7.56,31.23-7.16l-50.18-2.48s32.73-8.7,39.1-8.31c0,0-19.92-11.52-40.98-3.96,0,0,25.92-11.19,39.01-8.34l-42.56-14.79,40.11-.5"/>
    <polygon class="cls-42" points="1112.96 1043.46 875.57 1043.46 880.22 1056.92 1112.96 1056.92 1112.96 1043.46"/>
    <circle class="cls-4" cx="943.36" cy="994.23" r="26.28" transform="translate(-241.57 1682.98) rotate(-76.67)"/>
    <path d="m1004.72,972.41s-79.9,41.75-79.9,84.51h-76.73s84.56-84.51,156.63-84.51Z"/>
    <path d="m467.31,873.31l102.71-15.49-60.78-45.24s3.09-14.3,47.89-23.26c44.8-8.96,152.22,6.41,152.22,6.41,0,0,34.71-39.74,50.43,3.01,0,0,123.11,112.74,16.84,258.19h-129.18s-255.85-40.41-180.13-183.61Z"/>
    <path class="cls-19" d="m1059.69,975.45s-53.84-42.7-179.48,81.47h-232.78l179.91-289.28c44.18-71.06,152.66-50.62,167.99,31.64l64.36,176.18Z"/>
    <path class="cls-2" d="m846.13,958.2s-18.45,98.72-89.56,98.72h123.64s-34.09-98.72-34.09-98.72Z"/>
    <polyline class="cls-20" points="832.82 919.65 880.22 1056.92 1112.96 1056.92 1112.96 1043.46"/>
    <line class="cls-20" x1="862.96" y1="1006.93" x2="826.56" y2="967.95"/>
    <path class="cls-20" d="m721.23,938.27l106.12-170.63c44.18-71.06,152.66-50.62,167.99,31.64l64.36,176.18s-31.9-23.5-97.7,15.92"/>
    <path class="cls-20" d="m759.78,798.75l96.89-445.31s4.08,30.7,16.48,47.01"/>
    <polygon class="cls-17" points="585.36 861.21 636.84 908.48 656.29 864.23 585.36 861.21"/>
    <path class="cls-29" d="m1049.11,561.41c-1.9-11.22-9.73-18.06-17.66-22.18l1.77-51.05c-11.16,5.93-18.51,17.15-19.51,29.74l-2.3,29.18h0s-1.57,19.95-1.57,19.95l-34.24,23.69c-9.79,6.77-15.72,17.85-15.92,29.75l-.53,30.64c-7.27,5.84-8.24,16.55-2.14,23.59l54.4-17.92c10.34-4.76,22.13-11.39,27.37-17.25,17.93-20.08,14.94-50.93,10.33-78.12Z"/>
    <line class="cls-20" x1="959.14" y1="651.12" x2="996.86" y2="635.93"/>
    <line class="cls-20" x1="957" y1="674.71" x2="1011.4" y2="656.79"/>
    <line class="cls-20" x1="959.54" y1="627.71" x2="1003" y2="603.98"/>
    <line class="cls-20" x1="975.59" y1="590.73" x2="1025.19" y2="556.43"/>
    <path class="cls-46" d="m472.26,807.66s3.01,21.95,36.98,4.92c0,0,21.27,18.56,5.18,37.3-16.08,18.74-47.12,23.43-47.12,23.43,0,0,2.4-12.09-46.6-30.22l51.56-35.43Z"/>
    <g>
      <path class="cls-22" d="m480,901.04s34.79,4.41,58.7-11.92"/>
      <path class="cls-22" d="m564.09,799.29s26.91,6.79,16.34,43.8"/>
      <path class="cls-22" d="m432.27,877.19s10.29,13.76,26.85,12.07"/>
      <path class="cls-22" d="m483.2,810.89s15.26-6.33,26.04,1.7"/>
      <line class="cls-22" x1="439.17" y1="928.11" x2="465.32" y2="877.19"/>
      <line class="cls-22" x1="529.35" y1="894.3" x2="504.13" y2="908.76"/>
      <path class="cls-22" d="m626.68,787.51l82.67,8.22s17.51-19.9,35.53-15.63"/>
      <line class="cls-22" x1="709.35" y1="795.73" x2="660.97" y2="908.59"/>
      <path class="cls-22" d="m656.29,771.03s5.81,15.6,33.74,22.78"/>
      <path class="cls-22" d="m476.52,980.43s25.6,34.73,70.46,46.88"/>
      <path class="cls-22" d="m660.97,949.76s24.43,4.48,24.19,25.69"/>
      <polyline class="cls-22" points="417.36 998.08 417.36 970.58 426.1 988.28"/>
      <path class="cls-22" d="m273.24,935.75s29.82,5.9,68.78.6"/>
    </g>
    <path class="cls-6" d="m623.57,997.53c-.84,0-1.69-.32-2.33-.97-14.79-14.79-9.97-44.22-5.31-72.69,2.23-13.65,4.34-26.55,4.34-37.53,0-31.63-53.17-51.7-53.71-51.9-1.71-.63-2.58-2.53-1.95-4.24.64-1.71,2.54-2.59,4.24-1.95,2.37.88,58.02,21.92,58.02,58.1,0,11.52-2.15,24.67-4.43,38.6-4.39,26.82-8.93,54.56,3.46,66.95,1.29,1.29,1.29,3.38,0,4.67-.65.65-1.49.97-2.33.97Z"/>
    <path class="cls-6" d="m529.35,1042.87c-1.21,0-2.38-.67-2.96-1.83-18.91-37.82,6-71.38,26.01-98.35,7.59-10.23,14.76-19.89,18.03-28,2.7-6.68,2.74-12.93.13-18.59-6.11-13.25-24.62-19.59-24.81-19.66-1.73-.58-2.66-2.45-2.08-4.18.58-1.73,2.43-2.65,4.18-2.09.87.29,21.37,7.28,28.7,23.13,3.41,7.39,3.42,15.41,0,23.85-3.59,8.9-11.01,18.89-18.85,29.47-18.94,25.52-42.5,57.27-25.4,91.46.82,1.63.15,3.62-1.48,4.43-.47.24-.98.35-1.47.35Z"/>
    <line class="cls-20" x1="465.32" y1="1056.92" x2="811.23" y2="1056.92"/>
    <polyline class="cls-20" points="916.78 432.91 894.06 620.66 903.97 630.95 887.47 632.54 905.57 648.51 878.36 646.63 889.29 658.5 880.22 727.6"/>
    <path class="cls-20" d="m924,1017.77l-43.78-144.45h-17.26l7.87-22.6-14.16,8.94-6.07-34.42-8.9,63.88-9.65-6.82-57.13,107.59c-9.93,18.69-29.36,30.38-50.53,30.38h-54.15"/>
    <path class="cls-20" d="m880.22,1003.87s14.85-41.26,97.78-75.76"/>
    <path class="cls-20" d="m862.96,451.63s47.39,64.92,118.31,8.74"/>
    <path d="m457,860.63c-6.77-4.79-17.9-10.73-36.29-17.53l51.55-35.43s-13.14,31.55-15.26,52.97Z"/>
    <circle class="cls-26" cx="426.1" cy="795.31" r="47.79"/>
    <path class="cls-9" d="m441.56,687.11s35.03,17.47,23.76,40.48c-11.27,23.02-35.65,58.18-35.65,58.18l9.5,11.29-4.08,6.56s9.66,7.34,11.39,17.91c1.86,11.32-9.07,28.35-9.07,28.35l-20.61,1.91-47.23-44.13,8.75-62.78,5.99,7.86,12.06-44.95,6.54,7.54,20.98-52.06,3.83,18.58,13.85,5.26Z"/>
    <path class="cls-36" d="m441.97,841.42c-40.49-7.93-28.56-27.51-26.52-32.92,2.05-5.38,14.2-22.72,14.2-22.72l9.51,11.29-4.06,6.54s9.64,7.36,11.36,17.93c1.02,6.18-1.75,14.03-4.49,19.88Z"/>
    <path class="cls-12" d="m449.36,821.53c0,6.07-6.65,10.98-14.84,10.98s-14.84-4.92-14.84-10.98,6.65-10.98,14.84-10.98,14.84,4.92,14.84,10.98Z"/>
    <path class="cls-20" d="m431.64,689.75s-7.31-.26-5.54,10.78c1.77,11.04,17.29,24.46,33.02,20.52"/>
    <path class="cls-20" d="m426.1,721.75s6.18,10.19,26.14,12.84l-26.14,2.16,9.97,3.56-10.25,4.03-9.03,13.19"/>
    <path class="cls-20" d="m393.87,775.15s.52,6.97,12.65,10.63"/>
    <path class="cls-20" d="m416.8,851.8l-64.09-59.89s-16.22-18.56-33.54-4.3c0,0,18.99,11.89,24.4,63.37l-19.19,46.81"/>
    <line class="cls-20" x1="342.02" y1="766.71" x2="345.88" y2="786.28"/>
    <path class="cls-20" d="m257.41,932.75s17.14-33.59,57.29-43.87"/>
    <path class="cls-20" d="m424.7,825.43s-2.6-5.92,3.54-9.1c6.14-3.18,14.24.67,14.24.67"/>
    <line class="cls-20" x1="432.27" y1="815.17" x2="434.52" y2="823.17"/>
    <line class="cls-20" x1="439.17" y1="797.07" x2="435.09" y2="803.62"/>
    <line class="cls-20" x1="432.27" y1="795.31" x2="426.1" y2="807.66"/>
    <path class="cls-20" d="m418.56,803.62s-12.73,17.15-1.76,26.7"/>
    <path class="cls-22" d="m269.26,993.3s17.08,63.62,95.54,63.62"/>
    <path class="cls-20" d="m391.25,827.92s11.3,14.73,8.94,27.02"/>
    <path class="cls-27" d="m859.99,198.05l66.07,77.18c-1.48.77-20.53,64.64-20.53,64.64l39.51,20.6c43.48,26.86,80.82,3.35,80.82,3.35l9.43-119.61-166.42-60.78-8.89,14.62Z"/>
    <polygon class="cls-4" points="926.94 222.55 925.74 243.18 897.57 241.95 859.99 198.05 926.94 222.55"/>
    <polygon class="cls-42" points="859.99 198.05 1033.92 261.69 1035.29 244.22 868.87 183.43 859.99 198.05"/>
    <path d="m926.06,275.24l-28.49-33.28,28.17,1.23,37.27,30.17-17.97,87.12s-44.78,6.49-47.47-23.59l28.49-61.65Z"/>
    <path class="cls-4" d="m1022.3,312.77c0,13.24-10.73,23.96-23.97,23.96s-23.97-10.73-23.97-23.96,10.73-23.97,23.97-23.97,23.97,10.73,23.97,23.97Z"/>
    <polyline class="cls-22" points="945.04 360.47 963.01 273.35 925.74 243.18 897.57 241.95"/>
    <path class="cls-22" d="m904.04,322.88s15.45,20.29,48.8,18.6l-44.12-28.72,48.88,7.63-42.13-22.26,45.47,3.68-38.83-18.05,41.93-1.68-37.98-6.86,27.85-16.32-37.12,5.48,22.31-18.45-32.8,6.21"/>
    <path class="cls-20" d="m1016.11,328.85c-4.39,4.84-10.72,7.89-17.77,7.89-13.24,0-23.97-10.73-23.97-23.96s10.73-23.97,23.97-23.97"/>
    <line class="cls-20" x1="1035.29" y1="244.22" x2="1017.69" y2="467.44"/>
    <line class="cls-20" x1="1002.73" y1="660.7" x2="992.42" y2="787.62"/>
    <polyline class="cls-20" points="894.47 238.34 859.99 198.05 868.87 183.43"/>
    <line class="cls-20" x1="892.32" y1="209.88" x2="998.34" y2="248.67"/>
    <polygon class="cls-4" points="1016.29 1043.46 1029.58 1020.27 1071.77 1020.27 1112.96 1043.46 1016.29 1043.46"/>
    <line class="cls-20" x1="953.7" y1="1043.46" x2="1063" y2="1043.46"/>
    <path class="cls-20" d="m963.01,369.02s28.68,14.29,62.85-5.2"/>
    <path class="cls-20" d="m897.75,426.19s43.96,36.4,127.43-53.96"/>
    <line class="cls-20" x1="885.53" y1="402.83" x2="897.57" y2="364.94"/>
    <line class="cls-20" x1="378.31" y1="744.88" x2="369.57" y2="807.66"/>
    <polyline class="cls-20" points="396.36 707.8 402.9 715.33 423.88 663.27"/>
  </g>
  <line class="cls-21" x1="5.46" y1="1057.38" x2="1120.46" y2="1057.38"/>
</svg>